<svg width="108" height="108" viewBox="0 0 108 108" fill="none" xmlns="http://www.w3.org/2000/svg">
<g filter="url(#filter0_d_0_852)">
<rect x="11" y="11" width="86" height="86" rx="6" fill="#C7F0FD"/>
</g>
<path d="M48.5762 63.6509C48.6056 62.9665 48.8967 62.3199 49.3887 61.8461C49.8808 61.3722 50.5357 61.1077 51.217 61.1077C51.8982 61.1077 52.5532 61.3722 53.0452 61.8461C53.5372 62.3199 53.8283 62.9665 53.8577 63.6509C54.0121 70.1347 56.066 75.259 58.5678 75.259C61.1699 75.259 63.2855 69.7223 63.2855 62.8872C63.2869 61.6838 63.2192 60.4813 63.0826 59.2857C62.9955 58.4645 63.0789 57.634 63.3274 56.8468C63.576 56.0597 63.9843 55.333 64.5265 54.7127C66.6328 52.1402 67.7611 48.8986 67.7099 45.5667C67.7099 38.5866 63.1157 32.9353 57.4404 32.9353C56.2294 32.9365 55.0323 33.1948 53.9274 33.6933C53.1302 34.0502 52.2672 34.2346 51.3946 34.2346C50.5219 34.2346 49.659 34.0502 48.8617 33.6933C47.7568 33.1948 46.5597 32.9365 45.3487 32.9353C39.6812 32.9353 35.0792 38.5866 35.0792 45.5667C35.0353 48.7839 36.0848 51.9197 38.0541 54.4555C38.568 55.0726 38.9519 55.7884 39.1823 56.5593C39.4127 57.3302 39.4848 58.1402 39.3942 58.94C39.2287 60.2491 39.1466 61.5676 39.1484 62.8872C39.1484 69.7223 41.2641 75.259 43.8662 75.259C46.3679 75.259 48.4218 70.1347 48.5762 63.6509Z" stroke="#45CDF7" stroke-width="2" stroke-linecap="round" stroke-linejoin="round"/>
<path d="M26 77.2057C28.9967 74.0556 34.0681 71.3695 39.8051 69.1399C42.5652 68.0645 45.4821 67.0926 48.3989 66.2343C50.2494 65.6759 52.0894 65.1693 53.8981 64.7039C57.2645 63.8354 60.4741 63.1115 63.2864 62.5428C66.8201 61.7983 69.716 61.2916 71.4306 61.0125C71.8862 60.9389 72.3011 60.7052 72.6016 60.3531C72.9021 60.001 73.0688 59.5532 73.072 59.0892V59.0064C73.0528 58.5453 72.8724 58.1059 72.5625 57.7654C72.2527 57.4249 71.8334 57.2053 71.3783 57.1452L63.6524 56.0594" stroke="#45CDF7" stroke-width="2" stroke-linecap="round" stroke-linejoin="round"/>
<path d="M36.6373 52.2439L30.3227 51.3546C29.6957 51.2721 29.1199 50.9634 28.7022 50.4861C28.2831 50.0179 28.052 49.4098 28.054 48.7799C28.0602 48.0887 28.3369 47.4278 28.8241 46.9401C29.3113 46.4524 29.9698 46.1773 30.6572 46.1742C32.1836 46.1638 33.6577 46.1328 35.09 46.0914C50.0612 45.6675 60.2545 43.8786 67.1651 41.5004C76.875 38.1633 80.1034 33.6738 81 30.2057" stroke="#45CDF7" stroke-width="2" stroke-linecap="round" stroke-linejoin="round"/>
<defs>
<filter id="filter0_d_0_852" x="0.9" y="0.9" width="106.2" height="106.2" filterUnits="userSpaceOnUse" color-interpolation-filters="sRGB">
<feFlood flood-opacity="0" result="BackgroundImageFix"/>
<feColorMatrix in="SourceAlpha" type="matrix" values="0 0 0 0 0 0 0 0 0 0 0 0 0 0 0 0 0 0 127 0" result="hardAlpha"/>
<feOffset/>
<feGaussianBlur stdDeviation="5.05"/>
<feComposite in2="hardAlpha" operator="out"/>
<feColorMatrix type="matrix" values="0 0 0 0 0.192157 0 0 0 0 0.466667 0 0 0 0 0.882353 0 0 0 0.16 0"/>
<feBlend mode="normal" in2="BackgroundImageFix" result="effect1_dropShadow_0_852"/>
<feBlend mode="normal" in="SourceGraphic" in2="effect1_dropShadow_0_852" result="shape"/>
</filter>
</defs>
</svg>
