<svg width="108" height="108" viewBox="0 0 108 108" fill="none" xmlns="http://www.w3.org/2000/svg">
<g opacity="0.26" filter="url(#filter0_d_0_808)">
<rect x="11" y="11" width="86" height="86" rx="6" fill="#D17633"/>
</g>
<path d="M51.8089 49.4824C51.8294 49.0176 52.0286 48.5785 52.365 48.2568C52.7014 47.9351 53.1491 47.7555 53.6148 47.7555C54.0804 47.7555 54.5281 47.9351 54.8645 48.2568C55.2009 48.5785 55.4002 49.0176 55.4206 49.4824C55.5262 53.8852 56.9308 57.3649 58.6416 57.3649C60.4211 57.3649 61.8679 53.6052 61.8679 48.9638C61.8689 48.1466 61.8225 47.3301 61.7291 46.5182C61.6696 45.9605 61.7266 45.3965 61.8966 44.862C62.0666 44.3274 62.3458 43.834 62.7166 43.4129C64.1568 41.6665 64.9284 39.4651 64.8935 37.2024C64.8935 32.4625 61.7517 28.625 57.8707 28.625C57.0426 28.6258 56.224 28.8012 55.4683 29.1397C54.9231 29.3821 54.333 29.5073 53.7362 29.5073C53.1395 29.5073 52.5494 29.3821 52.0041 29.1397C51.2485 28.8012 50.4298 28.6258 49.6017 28.625C45.726 28.625 42.5789 32.4625 42.5789 37.2024C42.549 39.3872 43.2667 41.5167 44.6133 43.2383C44.9647 43.6572 45.2272 44.1432 45.3848 44.6667C45.5423 45.1902 45.5917 45.7403 45.5298 46.2835C45.4166 47.1724 45.3604 48.0677 45.3616 48.9638C45.3616 53.6052 46.8084 57.3649 48.5879 57.3649C50.2987 57.3649 51.7033 53.8852 51.8089 49.4824Z" stroke="#D17633" stroke-width="2" stroke-linecap="round" stroke-linejoin="round"/>
<path d="M61.069 36.3597C60.4744 34.9413 59.4846 33.7233 58.2173 32.8507" stroke="#D17633" stroke-width="2" stroke-linecap="round" stroke-linejoin="round"/>
<path d="M43.4162 67.6678L34.1815 57.364V44.4996C34.1751 43.7717 33.8797 43.0761 33.3601 42.5659C32.8406 42.0557 32.1395 41.7725 31.4111 41.7788C30.6827 41.7725 29.9816 42.0557 29.4621 42.5659C28.9425 43.0761 28.6471 43.7717 28.6407 44.4996V56.4843C28.6409 57.0628 28.7857 57.6321 29.0618 58.1405L36.131 71.1736C36.6143 72.0633 36.8676 73.0595 36.868 74.0719V76.7074C36.8721 77.1786 37.0633 77.6289 37.3997 77.9592C37.736 78.2895 38.1898 78.4727 38.6614 78.4687H46.408C46.8796 78.4727 47.3334 78.2895 47.6697 77.9592C48.006 77.6289 48.1973 77.1786 48.2014 76.7074V65.5816C48.2007 65.1175 48.1075 64.6582 47.9271 64.2305C47.7467 63.8028 47.4828 63.4153 47.1509 63.0907L39.6231 55.6977C39.1359 55.2226 38.4838 54.9541 37.8031 54.9483C37.1224 54.9426 36.4658 55.1999 35.9706 55.6667C35.4894 56.1195 35.2047 56.7426 35.1775 57.4026C35.1503 58.0626 35.3827 58.7069 35.825 59.1978L43.4162 67.6678Z" stroke="#D17633" stroke-width="2" stroke-linecap="round" stroke-linejoin="round"/>
<path d="M63.709 67.6671L72.9436 57.3633V44.4989C72.95 43.771 73.2455 43.0754 73.765 42.5652C74.2845 42.0549 74.9856 41.7718 75.714 41.7781C76.4424 41.7718 77.1435 42.0549 77.6631 42.5652C78.1826 43.0754 78.4781 43.771 78.4844 44.4989V56.4836C78.4842 57.0621 78.3395 57.6313 78.0633 58.1397L70.9942 71.1729C70.5109 72.0626 70.2576 73.0588 70.2572 74.0711V76.7067C70.2531 77.1779 70.0618 77.6281 69.7255 77.9584C69.3892 78.2887 68.9353 78.472 68.4638 78.468H60.7171C60.2456 78.472 59.7918 78.2887 59.4554 77.9584C59.1191 77.6281 58.9279 77.1779 58.9237 76.7067V65.5809C58.9244 65.1168 59.0177 64.6575 59.1981 64.2298C59.3784 63.8021 59.6423 63.4147 59.9743 63.0901L67.502 55.6971C67.9892 55.222 68.6413 54.9535 69.322 54.9477C70.0027 54.9419 70.6593 55.1993 71.1545 55.666C71.6357 56.1188 71.9204 56.7419 71.9476 57.4019C71.9748 58.0619 71.7424 58.7062 71.3001 59.1971L63.709 67.6671Z" stroke="#D17633" stroke-width="2" stroke-linecap="round" stroke-linejoin="round"/>
<defs>
<filter id="filter0_d_0_808" x="0.9" y="0.9" width="106.2" height="106.2" filterUnits="userSpaceOnUse" color-interpolation-filters="sRGB">
<feFlood flood-opacity="0" result="BackgroundImageFix"/>
<feColorMatrix in="SourceAlpha" type="matrix" values="0 0 0 0 0 0 0 0 0 0 0 0 0 0 0 0 0 0 127 0" result="hardAlpha"/>
<feOffset/>
<feGaussianBlur stdDeviation="5.05"/>
<feComposite in2="hardAlpha" operator="out"/>
<feColorMatrix type="matrix" values="0 0 0 0 0.192157 0 0 0 0 0.466667 0 0 0 0 0.882353 0 0 0 0.16 0"/>
<feBlend mode="normal" in2="BackgroundImageFix" result="effect1_dropShadow_0_808"/>
<feBlend mode="normal" in="SourceGraphic" in2="effect1_dropShadow_0_808" result="shape"/>
</filter>
</defs>
</svg>
