<svg width="108" height="108" viewBox="0 0 108 108" fill="none" xmlns="http://www.w3.org/2000/svg">
<g filter="url(#filter0_d_0_819)">
<rect x="11" y="11" width="86" height="86" rx="6" fill="#FEF5D8"/>
</g>
<path d="M29.4375 64.3602V71.8015C29.4554 73.1168 29.9941 74.3714 30.9355 75.2901C31.8768 76.2088 33.1441 76.7168 34.4595 76.7027H71.6642C72.9821 76.7203 74.2532 76.214 75.198 75.2949C76.1428 74.3759 76.6841 73.1194 76.703 71.8015V63.5079C76.703 66.798 74.0528 70.3269 70.7864 70.3269C68.4991 70.3269 66.5156 69.8155 65.5366 68.375C65.4634 68.2632 65.3631 68.1717 65.245 68.1091C65.1269 68.0465 64.995 68.0148 64.8613 68.017C64.7351 68.0228 64.6121 68.0583 64.5021 68.1205C64.3922 68.1826 64.2984 68.2698 64.2283 68.375C63.2408 69.8155 61.2573 70.3269 58.97 70.3269C56.6827 70.3269 54.6992 69.8155 53.7202 68.375C53.6483 68.2674 53.551 68.1793 53.4369 68.1183C53.3228 68.0573 53.1954 68.0254 53.0661 68.0254C52.9367 68.0254 52.8093 68.0573 52.6952 68.1183C52.5811 68.1793 52.4838 68.2674 52.4119 68.375C51.4244 69.8155 49.441 70.3269 47.1536 70.3269C44.8663 70.3269 42.8829 69.8155 41.9038 68.375C41.8338 68.2698 41.74 68.1826 41.63 68.1204C41.52 68.0583 41.397 68.0228 41.2708 68.017C41.1372 68.0148 41.0052 68.0465 40.8871 68.1091C40.769 68.1717 40.6687 68.2632 40.5955 68.375C39.608 69.8155 37.6246 70.3269 35.3373 70.3269C33.764 70.317 32.2589 69.6831 31.1527 68.5644C30.0465 67.4456 29.4296 65.9335 29.4375 64.3602Z" stroke="#F9CD3B" stroke-width="2" stroke-linecap="round" stroke-linejoin="round"/>
<path d="M64.8613 56.8678V68.0169C64.9949 68.0147 65.1269 68.0464 65.2449 68.109C65.363 68.1716 65.4633 68.2631 65.5365 68.3749C66.5155 69.8154 68.499 70.3268 70.7863 70.3268C74.0527 70.3268 76.703 66.798 76.703 63.5078V56.8678H64.8613Z" stroke="#F9CD3B" stroke-width="2" stroke-linecap="round" stroke-linejoin="round"/>
<path d="M53.0702 56.8678V68.0254C53.1988 68.0266 53.3251 68.059 53.4383 68.1199C53.5516 68.1808 53.6483 68.2683 53.7201 68.3749C54.6992 69.8154 56.6827 70.3268 58.97 70.3268C61.2573 70.3268 63.2408 69.8154 64.2283 68.3749C64.2983 68.2697 64.3921 68.1826 64.5021 68.1204C64.6121 68.0582 64.7351 68.0227 64.8613 68.0169V56.8678H53.0702Z" stroke="#F9CD3B" stroke-width="2" stroke-linecap="round" stroke-linejoin="round"/>
<path d="M41.2706 56.8678V68.0169C41.3968 68.0227 41.5199 68.0582 41.6298 68.1204C41.7398 68.1826 41.8336 68.2697 41.9036 68.3749C42.8827 69.8154 44.8662 70.3268 47.1535 70.3268C49.4408 70.3268 51.4243 69.8154 52.4118 68.3749C52.484 68.2667 52.5819 68.178 52.6968 68.117C52.8118 68.056 52.94 68.0245 53.0701 68.0254V56.8678H41.2706Z" stroke="#F9CD3B" stroke-width="2" stroke-linecap="round" stroke-linejoin="round"/>
<path d="M29.4375 56.8678V64.3602C29.4296 65.9335 30.0465 67.4455 31.1527 68.5643C32.2589 69.683 33.764 70.317 35.3373 70.3268C37.6246 70.3268 39.608 69.8154 40.5955 68.3749C40.6687 68.2631 40.769 68.1716 40.8871 68.109C41.0052 68.0464 41.1372 68.0147 41.2708 68.0169V56.8678H29.4375Z" stroke="#F9CD3B" stroke-width="2" stroke-linecap="round" stroke-linejoin="round"/>
<path d="M65.4269 29.4375H60.2216C59.9977 29.4375 59.783 29.5264 59.6247 29.6847C59.4665 29.843 59.3775 30.0577 59.3775 30.2815V34.7466C59.3775 34.969 59.4653 35.1824 59.6218 35.3404L62.976 38.7278L66.0275 35.6462C66.184 35.4881 66.2718 35.2747 66.2717 35.0522L66.271 30.2814C66.2709 30.0576 66.182 29.8429 66.0237 29.6847C65.8654 29.5264 65.6508 29.4375 65.4269 29.4375Z" stroke="#F9CD3B" stroke-width="2" stroke-linecap="round" stroke-linejoin="round"/>
<path d="M62.9759 38.7278V42.7121" stroke="#F9CD3B" stroke-width="2" stroke-linecap="round" stroke-linejoin="round"/>
<path d="M33.124 32.731L37.6065 32.9438C41.6148 33.134 45.6319 32.9027 49.5918 32.2535L59.3777 30.6494" stroke="#F9CD3B" stroke-width="2" stroke-linecap="round" stroke-linejoin="round"/>
<path d="M33.124 40.1612C40.0737 40.1612 46.9654 38.8969 53.4626 36.4301L59.3777 34.1842" stroke="#F9CD3B" stroke-width="2" stroke-linecap="round" stroke-linejoin="round"/>
<path d="M48.9198 32.3596V37.9409" stroke="#F9CD3B" stroke-width="2" stroke-linecap="round" stroke-linejoin="round"/>
<path d="M60.2778 42.7122H65.6743C65.849 42.7122 66.0194 42.7664 66.1619 42.8673C66.3045 42.9682 66.4123 43.1109 66.4703 43.2757L68.4645 48.936C68.5541 49.1905 68.5815 49.4629 68.5442 49.7302C68.5069 49.9975 68.406 50.2519 68.2501 50.4722C68.0941 50.6925 67.8876 50.8722 67.6479 50.9962C67.4082 51.1202 67.1422 51.1849 66.8723 51.1849H59.0797C58.8098 51.1849 58.5439 51.1202 58.3041 50.9962C58.0644 50.8722 57.8579 50.6925 57.702 50.4722C57.546 50.2519 57.4452 49.9975 57.4079 49.7302C57.3706 49.4629 57.3979 49.1905 57.4876 48.936L59.4817 43.2757C59.5397 43.1109 59.6475 42.9682 59.7901 42.8673C59.9327 42.7664 60.1031 42.7122 60.2778 42.7122Z" stroke="#F9CD3B" stroke-width="2" stroke-linecap="round" stroke-linejoin="round"/>
<defs>
<filter id="filter0_d_0_819" x="0.9" y="0.9" width="106.2" height="106.2" filterUnits="userSpaceOnUse" color-interpolation-filters="sRGB">
<feFlood flood-opacity="0" result="BackgroundImageFix"/>
<feColorMatrix in="SourceAlpha" type="matrix" values="0 0 0 0 0 0 0 0 0 0 0 0 0 0 0 0 0 0 127 0" result="hardAlpha"/>
<feOffset/>
<feGaussianBlur stdDeviation="5.05"/>
<feComposite in2="hardAlpha" operator="out"/>
<feColorMatrix type="matrix" values="0 0 0 0 0.192157 0 0 0 0 0.466667 0 0 0 0 0.882353 0 0 0 0.16 0"/>
<feBlend mode="normal" in2="BackgroundImageFix" result="effect1_dropShadow_0_819"/>
<feBlend mode="normal" in="SourceGraphic" in2="effect1_dropShadow_0_819" result="shape"/>
</filter>
</defs>
</svg>
