<svg width="108" height="108" viewBox="0 0 108 108" fill="none" xmlns="http://www.w3.org/2000/svg">
<g opacity="0.4" filter="url(#filter0_d_0_830)">
<rect x="11" y="11" width="86" height="86" rx="6" fill="#C2D1FF"/>
</g>
<path d="M69.1768 32.3568C66.3311 33.2007 63.8857 34.7796 62.1993 36.8622C60.5128 38.9448 59.674 41.4214 59.8059 43.9289C59.9377 46.4364 61.0332 48.8428 62.9318 50.7954C64.8304 52.7479 67.4322 54.1438 70.3556 54.7783C69.8853 55.7514 69.7179 56.8072 69.8691 57.8482C70.0718 59.2329 70.1718 60.6267 70.1685 62.0216C70.1685 69.2416 67.5956 75.0938 64.4238 75.0938C61.3736 75.0938 58.8755 69.6846 58.6884 62.8299C58.691 62.4774 58.6097 62.128 58.4491 61.8017C58.2886 61.4754 58.0519 61.1787 57.7528 60.9287C57.4537 60.6786 57.098 60.4802 56.7061 60.3448C56.3143 60.2094 55.8942 60.1397 55.4698 60.1397C55.0454 60.1397 54.6253 60.2094 54.2334 60.3448C53.8416 60.4802 53.4859 60.6786 53.1868 60.9287C52.8877 61.1787 52.651 61.4754 52.4904 61.8017C52.3299 62.128 52.2486 62.4774 52.2512 62.8299C52.0641 69.6846 49.566 75.0938 46.5158 75.0938C43.3441 75.0938 40.7711 69.2416 40.7711 62.0216C40.7693 60.7495 40.8505 59.4783 41.0143 58.2135C41.1236 57.3522 41.0242 56.4815 40.7221 55.6526C40.4201 54.8238 39.9213 54.0535 39.2553 53.3872C36.6726 50.6266 35.3056 47.2147 35.3818 43.7191C35.3818 36.3437 40.9769 30.375 47.8912 30.375C49.3701 30.3766 50.8303 30.65 52.167 31.1755C53.1317 31.5517 54.1843 31.7467 55.2499 31.7467C56.3156 31.7467 57.3682 31.5517 58.3328 31.1755C59.6726 30.6491 61.136 30.3758 62.618 30.375C65.0126 30.3941 67.3271 31.0935 69.1768 32.3568Z" stroke="#2952CE" stroke-width="2" stroke-linecap="round" stroke-linejoin="round"/>
<path d="M72.2924 52.1826C74.1832 49.6413 75.1663 46.7063 75.1273 43.7191C75.1783 40.513 74.0345 37.3722 71.8526 34.7272C67.4552 36.3981 64.4705 39.639 64.4705 43.3772C64.4705 47.2319 67.6517 50.5738 72.2924 52.1826Z" stroke="#2952CE" stroke-width="2" stroke-linecap="round" stroke-linejoin="round"/>
<path d="M41.4128 40.1872C42.4984 37.9885 44.319 36.0939 46.6593 34.7272" stroke="#2952CE" stroke-width="2" stroke-linecap="round" stroke-linejoin="round"/>
<defs>
<filter id="filter0_d_0_830" x="0.9" y="0.9" width="106.2" height="106.2" filterUnits="userSpaceOnUse" color-interpolation-filters="sRGB">
<feFlood flood-opacity="0" result="BackgroundImageFix"/>
<feColorMatrix in="SourceAlpha" type="matrix" values="0 0 0 0 0 0 0 0 0 0 0 0 0 0 0 0 0 0 127 0" result="hardAlpha"/>
<feOffset/>
<feGaussianBlur stdDeviation="5.05"/>
<feComposite in2="hardAlpha" operator="out"/>
<feColorMatrix type="matrix" values="0 0 0 0 0.192157 0 0 0 0 0.466667 0 0 0 0 0.882353 0 0 0 0.16 0"/>
<feBlend mode="normal" in2="BackgroundImageFix" result="effect1_dropShadow_0_830"/>
<feBlend mode="normal" in="SourceGraphic" in2="effect1_dropShadow_0_830" result="shape"/>
</filter>
</defs>
</svg>
