<svg width="19" height="20" viewBox="0 0 19 20" fill="none" xmlns="http://www.w3.org/2000/svg">
<path fill-rule="evenodd" clip-rule="evenodd" d="M3.95833 9.20833C3.95833 6.58871 6.08871 4.45833 8.70833 4.45833C11.328 4.45833 13.4583 6.58871 13.4583 9.20833C13.4583 11.828 11.328 13.9583 8.70833 13.9583C6.08871 13.9583 3.95833 11.828 3.95833 9.20833ZM16.393 15.7736L13.7053 13.0851C14.539 12.0132 15.0417 10.6698 15.0417 9.20833C15.0417 5.71629 12.2004 2.875 8.70833 2.875C5.21629 2.875 2.375 5.71629 2.375 9.20833C2.375 12.7004 5.21629 15.5417 8.70833 15.5417C10.1698 15.5417 11.5132 15.039 12.5851 14.2053L15.2736 16.893C15.428 17.0474 15.6307 17.125 15.8333 17.125C16.036 17.125 16.2387 17.0474 16.393 16.893C16.7026 16.5835 16.7026 16.0832 16.393 15.7736Z" fill="#231F20"/>
<mask id="mask0_1036_1164" style="mask-type:luminance" maskUnits="userSpaceOnUse" x="2" y="2" width="15" height="16">
<path fill-rule="evenodd" clip-rule="evenodd" d="M3.95833 9.20833C3.95833 6.58871 6.08871 4.45833 8.70833 4.45833C11.328 4.45833 13.4583 6.58871 13.4583 9.20833C13.4583 11.828 11.328 13.9583 8.70833 13.9583C6.08871 13.9583 3.95833 11.828 3.95833 9.20833ZM16.393 15.7736L13.7053 13.0851C14.539 12.0132 15.0417 10.6698 15.0417 9.20833C15.0417 5.71629 12.2004 2.875 8.70833 2.875C5.21629 2.875 2.375 5.71629 2.375 9.20833C2.375 12.7004 5.21629 15.5417 8.70833 15.5417C10.1698 15.5417 11.5132 15.039 12.5851 14.2053L15.2736 16.893C15.428 17.0474 15.6307 17.125 15.8333 17.125C16.036 17.125 16.2387 17.0474 16.393 16.893C16.7026 16.5835 16.7026 16.0832 16.393 15.7736Z" fill="white"/>
</mask>
<g mask="url(#mask0_1036_1164)">
<rect y="0.5" width="19" height="19" fill="white"/>
</g>
</svg>
