<svg width="20" height="20" viewBox="0 0 20 20" fill="none" xmlns="http://www.w3.org/2000/svg">
<path fill-rule="evenodd" clip-rule="evenodd" d="M4.60011 2C3.16611 2 2.00011 3.166 2.00011 4.6C2.00011 11.988 8.01111 18 15.4001 18C16.8331 18 18.0001 16.834 18.0001 15.4C18.0001 15.289 17.9931 15.18 17.9791 15.072L13.3591 14.012C13.2671 14.188 13.1661 14.379 13.0741 14.557C12.6181 15.427 12.2881 16.059 11.4461 15.72C8.14011 14.56 5.44111 11.86 4.26611 8.514C3.90911 7.729 4.58911 7.373 5.45111 6.923C5.62611 6.831 5.81511 6.732 5.98811 6.642L4.92811 2.021C4.81711 2.007 4.70911 2 4.60011 2ZM15.4001 20C6.90811 20 0.000106812 13.092 0.000106812 4.6C0.000106812 2.063 2.06311 0 4.60011 0C4.86011 0 5.11711 0.022 5.36611 0.065C5.60911 0.104 5.85311 0.166 6.09111 0.248C6.41611 0.361 6.66111 0.634 6.73811 0.97L8.10711 6.934C8.18311 7.262 8.08811 7.606 7.85411 7.85C7.71811 7.992 7.71511 7.995 6.47511 8.644C7.47911 10.818 9.22411 12.557 11.3541 13.527C12.0041 12.286 12.0081 12.282 12.1501 12.146C12.3941 11.912 12.7401 11.821 13.0661 11.893L19.0311 13.262C19.3661 13.339 19.6391 13.583 19.7511 13.908C19.8331 14.144 19.8951 14.388 19.9361 14.639C19.9781 14.886 20.0001 15.142 20.0001 15.4C20.0001 17.937 17.9361 20 15.4001 20Z" fill="#142349"/>
</svg>
