<svg width="216" height="54" viewBox="0 0 216 54" fill="none" xmlns="http://www.w3.org/2000/svg">
<g opacity="0.7">
<path d="M92.9224 25.0215V14.7975H88.8904V12.4215H99.8704V14.7975H95.8384V25.0215H92.9224ZM104.121 17.4975H110.187V19.7655H104.121V17.4975ZM104.337 22.6815H111.195V25.0215H101.439V12.4215H110.961V14.7615H104.337V22.6815ZM119.545 25.2375C118.573 25.2375 117.667 25.0815 116.827 24.7695C115.999 24.4455 115.279 23.9895 114.667 23.4015C114.055 22.8135 113.575 22.1235 113.227 21.3315C112.891 20.5395 112.723 19.6695 112.723 18.7215C112.723 17.7735 112.891 16.9035 113.227 16.1115C113.575 15.3195 114.055 14.6295 114.667 14.0415C115.291 13.4535 116.017 13.0035 116.845 12.6915C117.673 12.3675 118.579 12.2055 119.563 12.2055C120.655 12.2055 121.639 12.3975 122.515 12.7815C123.403 13.1535 124.147 13.7055 124.747 14.4375L122.875 16.1655C122.443 15.6735 121.963 15.3075 121.435 15.0675C120.907 14.8155 120.331 14.6895 119.707 14.6895C119.119 14.6895 118.579 14.7855 118.087 14.9775C117.595 15.1695 117.169 15.4455 116.809 15.8055C116.449 16.1655 116.167 16.5915 115.963 17.0835C115.771 17.5755 115.675 18.1215 115.675 18.7215C115.675 19.3215 115.771 19.8675 115.963 20.3595C116.167 20.8515 116.449 21.2775 116.809 21.6375C117.169 21.9975 117.595 22.2735 118.087 22.4655C118.579 22.6575 119.119 22.7535 119.707 22.7535C120.331 22.7535 120.907 22.6335 121.435 22.3935C121.963 22.1415 122.443 21.7635 122.875 21.2595L124.747 22.9875C124.147 23.7195 123.403 24.2775 122.515 24.6615C121.639 25.0455 120.649 25.2375 119.545 25.2375ZM135.357 12.4215H138.273V25.0215H135.357V12.4215ZM129.633 25.0215H126.717V12.4215H129.633V25.0215ZM135.573 19.8555H129.417V17.3895H135.573V19.8555ZM141.254 25.0215V12.4215H147.41C148.994 12.4215 150.182 12.7215 150.974 13.3215C151.778 13.9215 152.18 14.7135 152.18 15.6975C152.18 16.3575 152.018 16.9335 151.694 17.4255C151.37 17.9055 150.926 18.2775 150.362 18.5415C149.798 18.8055 149.15 18.9375 148.418 18.9375L148.76 18.1995C149.552 18.1995 150.254 18.3315 150.866 18.5955C151.478 18.8475 151.952 19.2255 152.288 19.7295C152.636 20.2335 152.81 20.8515 152.81 21.5835C152.81 22.6635 152.384 23.5095 151.532 24.1215C150.68 24.7215 149.426 25.0215 147.77 25.0215H141.254ZM144.152 22.8255H147.554C148.31 22.8255 148.88 22.7055 149.264 22.4655C149.66 22.2135 149.858 21.8175 149.858 21.2775C149.858 20.7495 149.66 20.3595 149.264 20.1075C148.88 19.8435 148.31 19.7115 147.554 19.7115H143.936V17.5875H147.05C147.758 17.5875 148.298 17.4675 148.67 17.2275C149.054 16.9755 149.246 16.5975 149.246 16.0935C149.246 15.6015 149.054 15.2355 148.67 14.9955C148.298 14.7435 147.758 14.6175 147.05 14.6175H144.152V22.8255ZM155.017 25.0215V12.4215H160.471C161.599 12.4215 162.571 12.6075 163.387 12.9795C164.203 13.3395 164.833 13.8615 165.277 14.5455C165.721 15.2295 165.943 16.0455 165.943 16.9935C165.943 17.9295 165.721 18.7395 165.277 19.4235C164.833 20.0955 164.203 20.6115 163.387 20.9715C162.571 21.3315 161.599 21.5115 160.471 21.5115H156.637L157.933 20.2335V25.0215H155.017ZM163.027 25.0215L159.877 20.4495H162.991L166.177 25.0215H163.027ZM157.933 20.5575L156.637 19.1895H160.309C161.209 19.1895 161.881 18.9975 162.325 18.6135C162.769 18.2175 162.991 17.6775 162.991 16.9935C162.991 16.2975 162.769 15.7575 162.325 15.3735C161.881 14.9895 161.209 14.7975 160.309 14.7975H156.637L157.933 13.4115V20.5575ZM166.598 25.0215L172.214 12.4215H175.094L180.728 25.0215H177.668L173.06 13.8975H174.212L169.586 25.0215H166.598ZM169.406 22.3215L170.18 20.1075H176.66L177.452 22.3215H169.406ZM182.035 25.0215V12.4215H184.447L191.881 21.4935H190.711V12.4215H193.591V25.0215H191.197L183.745 15.9495H184.915V25.0215H182.035ZM196.572 25.0215V12.4215H202.296C203.664 12.4215 204.87 12.6855 205.914 13.2135C206.958 13.7295 207.774 14.4555 208.362 15.3915C208.95 16.3275 209.244 17.4375 209.244 18.7215C209.244 19.9935 208.95 21.1035 208.362 22.0515C207.774 22.9875 206.958 23.7195 205.914 24.2475C204.87 24.7635 203.664 25.0215 202.296 25.0215H196.572ZM199.488 22.6275H202.152C202.992 22.6275 203.718 22.4715 204.33 22.1595C204.954 21.8355 205.434 21.3795 205.77 20.7915C206.118 20.2035 206.292 19.5135 206.292 18.7215C206.292 17.9175 206.118 17.2275 205.77 16.6515C205.434 16.0635 204.954 15.6135 204.33 15.3015C203.718 14.9775 202.992 14.8155 202.152 14.8155H199.488V22.6275Z" fill="#C7F0FD"/>
<path d="M90.313 39.5464V36.9724L90.646 37.8544L87.874 33.2464H89.422L91.546 36.7834H90.655L92.788 33.2464H94.219L91.447 37.8544L91.771 36.9724V39.5464H90.313ZM97.6166 39.6544C97.1186 39.6544 96.6566 39.5734 96.2306 39.4114C95.8106 39.2494 95.4446 39.0214 95.1326 38.7274C94.8266 38.4334 94.5866 38.0884 94.4126 37.6924C94.2446 37.2964 94.1606 36.8644 94.1606 36.3964C94.1606 35.9284 94.2446 35.4964 94.4126 35.1004C94.5866 34.7044 94.8296 34.3594 95.1416 34.0654C95.4536 33.7714 95.8196 33.5434 96.2396 33.3814C96.6596 33.2194 97.1156 33.1384 97.6076 33.1384C98.1056 33.1384 98.5616 33.2194 98.9756 33.3814C99.3956 33.5434 99.7586 33.7714 100.065 34.0654C100.377 34.3594 100.62 34.7044 100.794 35.1004C100.968 35.4904 101.055 35.9224 101.055 36.3964C101.055 36.8644 100.968 37.2994 100.794 37.7014C100.62 38.0974 100.377 38.4424 100.065 38.7364C99.7586 39.0244 99.3956 39.2494 98.9756 39.4114C98.5616 39.5734 98.1086 39.6544 97.6166 39.6544ZM97.6076 38.4124C97.8896 38.4124 98.1476 38.3644 98.3816 38.2684C98.6216 38.1724 98.8316 38.0344 99.0116 37.8544C99.1916 37.6744 99.3296 37.4614 99.4256 37.2154C99.5276 36.9694 99.5786 36.6964 99.5786 36.3964C99.5786 36.0964 99.5276 35.8234 99.4256 35.5774C99.3296 35.3314 99.1916 35.1184 99.0116 34.9384C98.8376 34.7584 98.6306 34.6204 98.3906 34.5244C98.1506 34.4284 97.8896 34.3804 97.6076 34.3804C97.3256 34.3804 97.0646 34.4284 96.8246 34.5244C96.5906 34.6204 96.3836 34.7584 96.2036 34.9384C96.0236 35.1184 95.8826 35.3314 95.7806 35.5774C95.6846 35.8234 95.6366 36.0964 95.6366 36.3964C95.6366 36.6904 95.6846 36.9634 95.7806 37.2154C95.8826 37.4614 96.0206 37.6744 96.1946 37.8544C96.3746 38.0344 96.5846 38.1724 96.8246 38.2684C97.0646 38.3644 97.3256 38.4124 97.6076 38.4124ZM104.949 39.6544C104.055 39.6544 103.356 39.4054 102.852 38.9074C102.348 38.4094 102.096 37.6984 102.096 36.7744V33.2464H103.554V36.7204C103.554 37.3204 103.677 37.7524 103.923 38.0164C104.169 38.2804 104.514 38.4124 104.958 38.4124C105.402 38.4124 105.747 38.2804 105.993 38.0164C106.239 37.7524 106.362 37.3204 106.362 36.7204V33.2464H107.802V36.7744C107.802 37.6984 107.55 38.4094 107.046 38.9074C106.542 39.4054 105.843 39.6544 104.949 39.6544ZM109.243 39.5464V33.2464H111.97C112.534 33.2464 113.02 33.3394 113.428 33.5254C113.836 33.7054 114.151 33.9664 114.373 34.3084C114.595 34.6504 114.706 35.0584 114.706 35.5324C114.706 36.0004 114.595 36.4054 114.373 36.7474C114.151 37.0834 113.836 37.3414 113.428 37.5214C113.02 37.7014 112.534 37.7914 111.97 37.7914H110.053L110.701 37.1524V39.5464H109.243ZM113.248 39.5464L111.673 37.2604H113.23L114.823 39.5464H113.248ZM110.701 37.3144L110.053 36.6304H111.889C112.339 36.6304 112.675 36.5344 112.897 36.3424C113.119 36.1444 113.23 35.8744 113.23 35.5324C113.23 35.1844 113.119 34.9144 112.897 34.7224C112.675 34.5304 112.339 34.4344 111.889 34.4344H110.053L110.701 33.7414V37.3144ZM119.715 39.5464V34.4344H117.699V33.2464H123.189V34.4344H121.173V39.5464H119.715ZM122.829 39.5464L125.637 33.2464H127.077L129.894 39.5464H128.364L126.06 33.9844H126.636L124.323 39.5464H122.829ZM124.233 38.1964L124.62 37.0894H127.86L128.256 38.1964H124.233ZM133.502 39.6544C133.004 39.6544 132.545 39.5764 132.125 39.4204C131.711 39.2584 131.348 39.0304 131.036 38.7364C130.73 38.4424 130.49 38.0974 130.316 37.7014C130.148 37.3054 130.064 36.8704 130.064 36.3964C130.064 35.9224 130.148 35.4874 130.316 35.0914C130.49 34.6954 130.733 34.3504 131.045 34.0564C131.357 33.7624 131.723 33.5374 132.143 33.3814C132.563 33.2194 133.025 33.1384 133.529 33.1384C134.087 33.1384 134.588 33.2314 135.032 33.4174C135.482 33.6034 135.86 33.8734 136.166 34.2274L135.23 35.0914C135.002 34.8514 134.753 34.6744 134.483 34.5604C134.213 34.4404 133.919 34.3804 133.601 34.3804C133.295 34.3804 133.016 34.4284 132.764 34.5244C132.512 34.6204 132.293 34.7584 132.107 34.9384C131.927 35.1184 131.786 35.3314 131.684 35.5774C131.588 35.8234 131.54 36.0964 131.54 36.3964C131.54 36.6904 131.588 36.9604 131.684 37.2064C131.786 37.4524 131.927 37.6684 132.107 37.8544C132.293 38.0344 132.509 38.1724 132.755 38.2684C133.007 38.3644 133.283 38.4124 133.583 38.4124C133.871 38.4124 134.15 38.3674 134.42 38.2774C134.696 38.1814 134.963 38.0224 135.221 37.8004L136.049 38.8534C135.707 39.1114 135.308 39.3094 134.852 39.4474C134.402 39.5854 133.952 39.6544 133.502 39.6544ZM134.717 38.6644V36.2974H136.049V38.8534L134.717 38.6644ZM137.403 39.5464V33.2464H138.861V38.3584H142.02V39.5464H137.403ZM142.835 39.5464V33.2464H144.293V39.5464H142.835ZM145.788 39.5464V33.2464H146.994L150.711 37.7824H150.126V33.2464H151.566V39.5464H150.369L146.643 35.0104H147.228V39.5464H145.788ZM154.398 35.7844H157.431V36.9184H154.398V35.7844ZM154.506 38.3764H157.935V39.5464H153.057V33.2464H157.818V34.4164H154.506V38.3764ZM164.685 39.6544C164.187 39.6544 163.728 39.5764 163.308 39.4204C162.894 39.2584 162.531 39.0304 162.219 38.7364C161.913 38.4424 161.673 38.0974 161.499 37.7014C161.331 37.3054 161.247 36.8704 161.247 36.3964C161.247 35.9224 161.331 35.4874 161.499 35.0914C161.673 34.6954 161.916 34.3504 162.228 34.0564C162.54 33.7624 162.906 33.5374 163.326 33.3814C163.746 33.2194 164.208 33.1384 164.712 33.1384C165.27 33.1384 165.771 33.2314 166.215 33.4174C166.665 33.6034 167.043 33.8734 167.349 34.2274L166.413 35.0914C166.185 34.8514 165.936 34.6744 165.666 34.5604C165.396 34.4404 165.102 34.3804 164.784 34.3804C164.478 34.3804 164.199 34.4284 163.947 34.5244C163.695 34.6204 163.476 34.7584 163.29 34.9384C163.11 35.1184 162.969 35.3314 162.867 35.5774C162.771 35.8234 162.723 36.0964 162.723 36.3964C162.723 36.6904 162.771 36.9604 162.867 37.2064C162.969 37.4524 163.11 37.6684 163.29 37.8544C163.476 38.0344 163.692 38.1724 163.938 38.2684C164.19 38.3644 164.466 38.4124 164.766 38.4124C165.054 38.4124 165.333 38.3674 165.603 38.2774C165.879 38.1814 166.146 38.0224 166.404 37.8004L167.232 38.8534C166.89 39.1114 166.491 39.3094 166.035 39.4474C165.585 39.5854 165.135 39.6544 164.685 39.6544ZM165.9 38.6644V36.2974H167.232V38.8534L165.9 38.6644ZM171.647 39.6544C171.149 39.6544 170.687 39.5734 170.261 39.4114C169.841 39.2494 169.475 39.0214 169.163 38.7274C168.857 38.4334 168.617 38.0884 168.443 37.6924C168.275 37.2964 168.191 36.8644 168.191 36.3964C168.191 35.9284 168.275 35.4964 168.443 35.1004C168.617 34.7044 168.86 34.3594 169.172 34.0654C169.484 33.7714 169.85 33.5434 170.27 33.3814C170.69 33.2194 171.146 33.1384 171.638 33.1384C172.136 33.1384 172.592 33.2194 173.006 33.3814C173.426 33.5434 173.789 33.7714 174.095 34.0654C174.407 34.3594 174.65 34.7044 174.824 35.1004C174.998 35.4904 175.085 35.9224 175.085 36.3964C175.085 36.8644 174.998 37.2994 174.824 37.7014C174.65 38.0974 174.407 38.4424 174.095 38.7364C173.789 39.0244 173.426 39.2494 173.006 39.4114C172.592 39.5734 172.139 39.6544 171.647 39.6544ZM171.638 38.4124C171.92 38.4124 172.178 38.3644 172.412 38.2684C172.652 38.1724 172.862 38.0344 173.042 37.8544C173.222 37.6744 173.36 37.4614 173.456 37.2154C173.558 36.9694 173.609 36.6964 173.609 36.3964C173.609 36.0964 173.558 35.8234 173.456 35.5774C173.36 35.3314 173.222 35.1184 173.042 34.9384C172.868 34.7584 172.661 34.6204 172.421 34.5244C172.181 34.4284 171.92 34.3804 171.638 34.3804C171.356 34.3804 171.095 34.4284 170.855 34.5244C170.621 34.6204 170.414 34.7584 170.234 34.9384C170.054 35.1184 169.913 35.3314 169.811 35.5774C169.715 35.8234 169.667 36.0964 169.667 36.3964C169.667 36.6904 169.715 36.9634 169.811 37.2154C169.913 37.4614 170.051 37.6744 170.225 37.8544C170.405 38.0344 170.615 38.1724 170.855 38.2684C171.095 38.3644 171.356 38.4124 171.638 38.4124ZM177.522 35.7844H180.555V36.9184H177.522V35.7844ZM177.63 38.3764H181.059V39.5464H176.181V33.2464H180.942V34.4164H177.63V38.3764ZM184.289 39.6544C183.785 39.6544 183.302 39.5884 182.84 39.4564C182.378 39.3184 182.006 39.1414 181.724 38.9254L182.219 37.8274C182.489 38.0194 182.807 38.1784 183.173 38.3044C183.545 38.4244 183.92 38.4844 184.298 38.4844C184.586 38.4844 184.817 38.4574 184.991 38.4034C185.171 38.3434 185.303 38.2624 185.387 38.1604C185.471 38.0584 185.513 37.9414 185.513 37.8094C185.513 37.6414 185.447 37.5094 185.315 37.4134C185.183 37.3114 185.009 37.2304 184.793 37.1704C184.577 37.1044 184.337 37.0444 184.073 36.9904C183.815 36.9304 183.554 36.8584 183.29 36.7744C183.032 36.6904 182.795 36.5824 182.579 36.4504C182.363 36.3184 182.186 36.1444 182.048 35.9284C181.916 35.7124 181.85 35.4364 181.85 35.1004C181.85 34.7404 181.946 34.4134 182.138 34.1194C182.336 33.8194 182.63 33.5824 183.02 33.4084C183.416 33.2284 183.911 33.1384 184.505 33.1384C184.901 33.1384 185.291 33.1864 185.675 33.2824C186.059 33.3724 186.398 33.5104 186.692 33.6964L186.242 34.8034C185.948 34.6354 185.654 34.5124 185.36 34.4344C185.066 34.3504 184.778 34.3084 184.496 34.3084C184.214 34.3084 183.983 34.3414 183.803 34.4074C183.623 34.4734 183.494 34.5604 183.416 34.6684C183.338 34.7704 183.299 34.8904 183.299 35.0284C183.299 35.1904 183.365 35.3224 183.497 35.4244C183.629 35.5204 183.803 35.5984 184.019 35.6584C184.235 35.7184 184.472 35.7784 184.73 35.8384C184.994 35.8984 185.255 35.9674 185.513 36.0454C185.777 36.1234 186.017 36.2284 186.233 36.3604C186.449 36.4924 186.623 36.6664 186.755 36.8824C186.893 37.0984 186.962 37.3714 186.962 37.7014C186.962 38.0554 186.863 38.3794 186.665 38.6734C186.467 38.9674 186.17 39.2044 185.774 39.3844C185.384 39.5644 184.889 39.6544 184.289 39.6544ZM194.827 33.2464H196.285V39.5464H194.827V33.2464ZM191.965 39.5464H190.507V33.2464H191.965V39.5464ZM194.935 36.9634H191.857V35.7304H194.935V36.9634ZM199.116 35.7844H202.149V36.9184H199.116V35.7844ZM199.224 38.3764H202.653V39.5464H197.775V33.2464H202.536V34.4164H199.224V38.3764ZM203.813 39.5464V33.2464H206.54C207.104 33.2464 207.59 33.3394 207.998 33.5254C208.406 33.7054 208.721 33.9664 208.943 34.3084C209.165 34.6504 209.276 35.0584 209.276 35.5324C209.276 36.0004 209.165 36.4054 208.943 36.7474C208.721 37.0834 208.406 37.3414 207.998 37.5214C207.59 37.7014 207.104 37.7914 206.54 37.7914H204.623L205.271 37.1524V39.5464H203.813ZM207.818 39.5464L206.243 37.2604H207.8L209.393 39.5464H207.818ZM205.271 37.3144L204.623 36.6304H206.459C206.909 36.6304 207.245 36.5344 207.467 36.3424C207.689 36.1444 207.8 35.8744 207.8 35.5324C207.8 35.1844 207.689 34.9144 207.467 34.7224C207.245 34.5304 206.909 34.4344 206.459 34.4344H204.623L205.271 33.7414V37.3144ZM211.773 35.7844H214.806V36.9184H211.773V35.7844ZM211.881 38.3764H215.31V39.5464H210.432V33.2464H215.193V34.4164H211.881V38.3764Z" fill="#C7F0FD"/>
</g>
<path d="M66.9244 35.9178C66.0018 35.9178 65.2021 36.3573 64.71 37.048L59.7891 35.2272C60.5887 32.653 61.0808 29.8276 61.0808 26.9395C61.0808 17.2077 56.0369 8.7316 48.5325 3.95989L45.703 10.0501C51.0545 13.6917 54.5606 19.9075 54.5606 26.9395C54.5606 29.0114 54.2531 31.0205 53.6995 32.9041L48.6555 31.0833C49.0246 29.7648 49.2091 28.3835 49.2091 26.9395C49.2091 21.1004 45.8875 16.0775 41.1511 13.6289C40.9666 14.3195 40.7206 14.9474 40.536 15.638C40.2285 16.5798 39.9209 17.5844 39.6133 18.589C42.3814 20.2842 44.2882 23.4235 44.2882 26.9395C44.2882 27.7557 44.1652 28.5719 43.9807 29.3253L38.8752 27.4417C38.8752 27.2534 38.9367 27.065 38.9367 26.9395C38.9367 24.5536 37.0299 22.67 34.754 22.67C33.2777 22.67 31.9859 23.4862 31.1863 24.6792L26.0808 22.7956C27.6186 19.468 30.8787 17.2077 34.6924 17.2077C36.0457 17.2077 37.3374 17.5216 38.5061 18.0239C38.9367 17.1449 39.3673 16.2659 39.7979 15.3869C40.1054 14.759 40.413 14.0684 40.7206 13.4405C38.8752 12.6243 36.8453 12.122 34.754 12.122C28.7873 12.122 23.6204 15.8264 21.406 21.0376L16.362 19.2168C19.3761 11.8709 26.4499 6.65967 34.754 6.65967C36.5993 6.65967 38.3831 6.91081 40.1054 7.4131L42.1968 1.07175C39.8594 0.381107 37.3374 0.00439453 34.754 0.00439453C23.6204 0.00439453 14.0861 7.03639 10.2109 16.9565L5.78207 15.3241V15.2613C5.78207 13.6289 4.49033 12.3104 2.89103 12.3104C1.29174 12.3104 0 13.6289 0 15.2613C0 16.8937 1.29174 18.2122 2.89103 18.2122C3.81371 18.2122 4.61335 17.7727 5.10544 17.0821L9.53427 18.7145C8.73462 21.2887 8.24253 24.1141 8.24253 27.0022C8.24253 38.492 15.2548 48.2866 25.1582 52.1793L27.2496 45.838C19.9297 42.8242 14.7627 35.5411 14.7627 27.0022C14.7627 24.9303 15.0703 22.9212 15.6239 21.0376L20.6678 22.8584C20.2988 24.1769 20.1142 25.5582 20.1142 27.0022C20.1142 32.653 23.2513 37.613 27.8032 40.1245C28.4183 38.8687 29.0334 37.613 29.71 36.2945C29.833 36.0434 29.9561 35.7922 30.0791 35.6039C27.1265 33.9087 25.1582 30.7694 25.1582 27.065C25.1582 26.2488 25.2812 25.4326 25.4657 24.6792L30.5712 26.5627C30.5712 26.7511 30.5097 26.9395 30.5097 27.065C30.5097 29.4509 32.4165 31.3345 34.6924 31.3345C36.1687 31.3345 37.4605 30.5182 38.2601 29.3253L43.3656 31.2089C41.8278 34.5365 38.5677 36.7968 34.754 36.7968C34.4464 36.7968 34.2003 36.7968 33.8928 36.734C33.7698 37.1107 33.6467 37.4874 33.5237 37.8642C33.0931 39.1827 32.7241 40.4384 32.355 41.6941C33.1547 41.8197 33.8928 41.8824 34.754 41.8824C40.7206 41.8824 45.8875 38.1781 48.1019 32.9669L53.1459 34.7877C50.1318 42.1336 43.058 47.3448 34.754 47.3448C32.6626 47.3448 30.6942 47.0309 28.8489 46.403L26.0193 52.4932C28.7873 53.4978 31.7399 54.0001 34.754 54.0001C45.8875 54.0001 55.4218 46.9681 59.297 37.048L64.2179 38.8687V38.9315C64.2179 40.564 65.5097 41.8824 67.109 41.8824C68.7083 41.8824 70 40.564 70 38.9315C70 37.2991 68.4622 35.9178 66.9244 35.9178Z" fill="#C7F0FD"/>
</svg>
