<svg width="208" height="54" viewBox="0 0 208 54" fill="none" xmlns="http://www.w3.org/2000/svg">
<g opacity="0.7">
<path d="M84.9224 30.0322V19.8082H80.8904V17.4322H91.8704V19.8082H87.8384V30.0322H84.9224ZM96.1213 22.5082H102.187V24.7762H96.1213V22.5082ZM96.3373 27.6922H103.195V30.0322H93.4393V17.4322H102.961V19.7722H96.3373V27.6922ZM111.545 30.2482C110.573 30.2482 109.667 30.0922 108.827 29.7802C107.999 29.4562 107.279 29.0002 106.667 28.4122C106.055 27.8242 105.575 27.1342 105.227 26.3422C104.891 25.5502 104.723 24.6802 104.723 23.7322C104.723 22.7842 104.891 21.9142 105.227 21.1222C105.575 20.3302 106.055 19.6402 106.667 19.0522C107.291 18.4642 108.017 18.0142 108.845 17.7022C109.673 17.3782 110.579 17.2162 111.563 17.2162C112.655 17.2162 113.639 17.4082 114.515 17.7922C115.403 18.1642 116.147 18.7162 116.747 19.4482L114.875 21.1762C114.443 20.6842 113.963 20.3182 113.435 20.0782C112.907 19.8262 112.331 19.7002 111.707 19.7002C111.119 19.7002 110.579 19.7962 110.087 19.9882C109.595 20.1802 109.169 20.4562 108.809 20.8162C108.449 21.1762 108.167 21.6022 107.963 22.0942C107.771 22.5862 107.675 23.1322 107.675 23.7322C107.675 24.3322 107.771 24.8782 107.963 25.3702C108.167 25.8622 108.449 26.2882 108.809 26.6482C109.169 27.0082 109.595 27.2842 110.087 27.4762C110.579 27.6682 111.119 27.7642 111.707 27.7642C112.331 27.7642 112.907 27.6442 113.435 27.4042C113.963 27.1522 114.443 26.7742 114.875 26.2702L116.747 27.9982C116.147 28.7302 115.403 29.2882 114.515 29.6722C113.639 30.0562 112.649 30.2482 111.545 30.2482ZM127.357 17.4322H130.273V30.0322H127.357V17.4322ZM121.633 30.0322H118.717V17.4322H121.633V30.0322ZM127.573 24.8662H121.417V22.4002H127.573V24.8662ZM133.254 30.0322V17.4322H139.41C140.994 17.4322 142.182 17.7322 142.974 18.3322C143.778 18.9322 144.18 19.7242 144.18 20.7082C144.18 21.3682 144.018 21.9442 143.694 22.4362C143.37 22.9162 142.926 23.2882 142.362 23.5522C141.798 23.8162 141.15 23.9482 140.418 23.9482L140.76 23.2102C141.552 23.2102 142.254 23.3422 142.866 23.6062C143.478 23.8582 143.952 24.2362 144.288 24.7402C144.636 25.2442 144.81 25.8622 144.81 26.5942C144.81 27.6742 144.384 28.5202 143.532 29.1322C142.68 29.7322 141.426 30.0322 139.77 30.0322H133.254ZM136.152 27.8362H139.554C140.31 27.8362 140.88 27.7162 141.264 27.4762C141.66 27.2242 141.858 26.8282 141.858 26.2882C141.858 25.7602 141.66 25.3702 141.264 25.1182C140.88 24.8542 140.31 24.7222 139.554 24.7222H135.936V22.5982H139.05C139.758 22.5982 140.298 22.4782 140.67 22.2382C141.054 21.9862 141.246 21.6082 141.246 21.1042C141.246 20.6122 141.054 20.2462 140.67 20.0062C140.298 19.7542 139.758 19.6282 139.05 19.6282H136.152V27.8362ZM147.017 30.0322V17.4322H152.471C153.599 17.4322 154.571 17.6182 155.387 17.9902C156.203 18.3502 156.833 18.8722 157.277 19.5562C157.721 20.2402 157.943 21.0562 157.943 22.0042C157.943 22.9402 157.721 23.7502 157.277 24.4342C156.833 25.1062 156.203 25.6222 155.387 25.9822C154.571 26.3422 153.599 26.5222 152.471 26.5222H148.637L149.933 25.2442V30.0322H147.017ZM155.027 30.0322L151.877 25.4602H154.991L158.177 30.0322H155.027ZM149.933 25.5682L148.637 24.2002H152.309C153.209 24.2002 153.881 24.0082 154.325 23.6242C154.769 23.2282 154.991 22.6882 154.991 22.0042C154.991 21.3082 154.769 20.7682 154.325 20.3842C153.881 20.0002 153.209 19.8082 152.309 19.8082H148.637L149.933 18.4222V25.5682ZM158.598 30.0322L164.214 17.4322H167.094L172.728 30.0322H169.668L165.06 18.9082H166.212L161.586 30.0322H158.598ZM161.406 27.3322L162.18 25.1182H168.66L169.452 27.3322H161.406ZM174.035 30.0322V17.4322H176.447L183.881 26.5042H182.711V17.4322H185.591V30.0322H183.197L175.745 20.9602H176.915V30.0322H174.035ZM188.572 30.0322V17.4322H194.296C195.664 17.4322 196.87 17.6962 197.914 18.2242C198.958 18.7402 199.774 19.4662 200.362 20.4022C200.95 21.3382 201.244 22.4482 201.244 23.7322C201.244 25.0042 200.95 26.1142 200.362 27.0622C199.774 27.9982 198.958 28.7302 197.914 29.2582C196.87 29.7742 195.664 30.0322 194.296 30.0322H188.572ZM191.488 27.6382H194.152C194.992 27.6382 195.718 27.4822 196.33 27.1702C196.954 26.8462 197.434 26.3902 197.77 25.8022C198.118 25.2142 198.292 24.5242 198.292 23.7322C198.292 22.9282 198.118 22.2382 197.77 21.6622C197.434 21.0742 196.954 20.6242 196.33 20.3122C195.718 19.9882 194.992 19.8262 194.152 19.8262H191.488V27.6382Z" fill="#C7F0FD"/>
<path d="M82.313 44.5571V41.9831L82.646 42.8651L79.874 38.2571H81.422L83.546 41.7941H82.655L84.788 38.2571H86.219L83.447 42.8651L83.771 41.9831V44.5571H82.313ZM89.6166 44.6651C89.1186 44.6651 88.6566 44.5841 88.2306 44.4221C87.8106 44.2601 87.4446 44.0321 87.1326 43.7381C86.8266 43.4441 86.5866 43.0991 86.4126 42.7031C86.2446 42.3071 86.1606 41.8751 86.1606 41.4071C86.1606 40.9391 86.2446 40.5071 86.4126 40.1111C86.5866 39.7151 86.8296 39.3701 87.1416 39.0761C87.4536 38.7821 87.8196 38.5541 88.2396 38.3921C88.6596 38.2301 89.1156 38.1491 89.6076 38.1491C90.1056 38.1491 90.5616 38.2301 90.9756 38.3921C91.3956 38.5541 91.7586 38.7821 92.0646 39.0761C92.3766 39.3701 92.6196 39.7151 92.7936 40.1111C92.9676 40.5011 93.0546 40.9331 93.0546 41.4071C93.0546 41.8751 92.9676 42.3101 92.7936 42.7121C92.6196 43.1081 92.3766 43.4531 92.0646 43.7471C91.7586 44.0351 91.3956 44.2601 90.9756 44.4221C90.5616 44.5841 90.1086 44.6651 89.6166 44.6651ZM89.6076 43.4231C89.8896 43.4231 90.1476 43.3751 90.3816 43.2791C90.6216 43.1831 90.8316 43.0451 91.0116 42.8651C91.1916 42.6851 91.3296 42.4721 91.4256 42.2261C91.5276 41.9801 91.5786 41.7071 91.5786 41.4071C91.5786 41.1071 91.5276 40.8341 91.4256 40.5881C91.3296 40.3421 91.1916 40.1291 91.0116 39.9491C90.8376 39.7691 90.6306 39.6311 90.3906 39.5351C90.1506 39.4391 89.8896 39.3911 89.6076 39.3911C89.3256 39.3911 89.0646 39.4391 88.8246 39.5351C88.5906 39.6311 88.3836 39.7691 88.2036 39.9491C88.0236 40.1291 87.8826 40.3421 87.7806 40.5881C87.6846 40.8341 87.6366 41.1071 87.6366 41.4071C87.6366 41.7011 87.6846 41.9741 87.7806 42.2261C87.8826 42.4721 88.0206 42.6851 88.1946 42.8651C88.3746 43.0451 88.5846 43.1831 88.8246 43.2791C89.0646 43.3751 89.3256 43.4231 89.6076 43.4231ZM96.9493 44.6651C96.0553 44.6651 95.3563 44.4161 94.8523 43.9181C94.3483 43.4201 94.0963 42.7091 94.0963 41.7851V38.2571H95.5543V41.7311C95.5543 42.3311 95.6773 42.7631 95.9233 43.0271C96.1693 43.2911 96.5143 43.4231 96.9583 43.4231C97.4023 43.4231 97.7473 43.2911 97.9933 43.0271C98.2393 42.7631 98.3623 42.3311 98.3623 41.7311V38.2571H99.8023V41.7851C99.8023 42.7091 99.5503 43.4201 99.0463 43.9181C98.5423 44.4161 97.8433 44.6651 96.9493 44.6651ZM101.243 44.5571V38.2571H103.97C104.534 38.2571 105.02 38.3501 105.428 38.5361C105.836 38.7161 106.151 38.9771 106.373 39.3191C106.595 39.6611 106.706 40.0691 106.706 40.5431C106.706 41.0111 106.595 41.4161 106.373 41.7581C106.151 42.0941 105.836 42.3521 105.428 42.5321C105.02 42.7121 104.534 42.8021 103.97 42.8021H102.053L102.701 42.1631V44.5571H101.243ZM105.248 44.5571L103.673 42.2711H105.23L106.823 44.5571H105.248ZM102.701 42.3251L102.053 41.6411H103.889C104.339 41.6411 104.675 41.5451 104.897 41.3531C105.119 41.1551 105.23 40.8851 105.23 40.5431C105.23 40.1951 105.119 39.9251 104.897 39.7331C104.675 39.5411 104.339 39.4451 103.889 39.4451H102.053L102.701 38.7521V42.3251ZM111.715 44.5571V39.4451H109.699V38.2571H115.189V39.4451H113.173V44.5571H111.715ZM114.829 44.5571L117.637 38.2571H119.077L121.894 44.5571H120.364L118.06 38.9951H118.636L116.323 44.5571H114.829ZM116.233 43.2071L116.62 42.1001H119.86L120.256 43.2071H116.233ZM125.502 44.6651C125.004 44.6651 124.545 44.5871 124.125 44.4311C123.711 44.2691 123.348 44.0411 123.036 43.7471C122.73 43.4531 122.49 43.1081 122.316 42.7121C122.148 42.3161 122.064 41.8811 122.064 41.4071C122.064 40.9331 122.148 40.4981 122.316 40.1021C122.49 39.7061 122.733 39.3611 123.045 39.0671C123.357 38.7731 123.723 38.5481 124.143 38.3921C124.563 38.2301 125.025 38.1491 125.529 38.1491C126.087 38.1491 126.588 38.2421 127.032 38.4281C127.482 38.6141 127.86 38.8841 128.166 39.2381L127.23 40.1021C127.002 39.8621 126.753 39.6851 126.483 39.5711C126.213 39.4511 125.919 39.3911 125.601 39.3911C125.295 39.3911 125.016 39.4391 124.764 39.5351C124.512 39.6311 124.293 39.7691 124.107 39.9491C123.927 40.1291 123.786 40.3421 123.684 40.5881C123.588 40.8341 123.54 41.1071 123.54 41.4071C123.54 41.7011 123.588 41.9711 123.684 42.2171C123.786 42.4631 123.927 42.6791 124.107 42.8651C124.293 43.0451 124.509 43.1831 124.755 43.2791C125.007 43.3751 125.283 43.4231 125.583 43.4231C125.871 43.4231 126.15 43.3781 126.42 43.2881C126.696 43.1921 126.963 43.0331 127.221 42.8111L128.049 43.8641C127.707 44.1221 127.308 44.3201 126.852 44.4581C126.402 44.5961 125.952 44.6651 125.502 44.6651ZM126.717 43.6751V41.3081H128.049V43.8641L126.717 43.6751ZM129.403 44.5571V38.2571H130.861V43.3691H134.02V44.5571H129.403ZM134.835 44.5571V38.2571H136.293V44.5571H134.835ZM137.788 44.5571V38.2571H138.994L142.711 42.7931H142.126V38.2571H143.566V44.5571H142.369L138.643 40.0211H139.228V44.5571H137.788ZM146.398 40.7951H149.431V41.9291H146.398V40.7951ZM146.506 43.3871H149.935V44.5571H145.057V38.2571H149.818V39.4271H146.506V43.3871ZM156.685 44.6651C156.187 44.6651 155.728 44.5871 155.308 44.4311C154.894 44.2691 154.531 44.0411 154.219 43.7471C153.913 43.4531 153.673 43.1081 153.499 42.7121C153.331 42.3161 153.247 41.8811 153.247 41.4071C153.247 40.9331 153.331 40.4981 153.499 40.1021C153.673 39.7061 153.916 39.3611 154.228 39.0671C154.54 38.7731 154.906 38.5481 155.326 38.3921C155.746 38.2301 156.208 38.1491 156.712 38.1491C157.27 38.1491 157.771 38.2421 158.215 38.4281C158.665 38.6141 159.043 38.8841 159.349 39.2381L158.413 40.1021C158.185 39.8621 157.936 39.6851 157.666 39.5711C157.396 39.4511 157.102 39.3911 156.784 39.3911C156.478 39.3911 156.199 39.4391 155.947 39.5351C155.695 39.6311 155.476 39.7691 155.29 39.9491C155.11 40.1291 154.969 40.3421 154.867 40.5881C154.771 40.8341 154.723 41.1071 154.723 41.4071C154.723 41.7011 154.771 41.9711 154.867 42.2171C154.969 42.4631 155.11 42.6791 155.29 42.8651C155.476 43.0451 155.692 43.1831 155.938 43.2791C156.19 43.3751 156.466 43.4231 156.766 43.4231C157.054 43.4231 157.333 43.3781 157.603 43.2881C157.879 43.1921 158.146 43.0331 158.404 42.8111L159.232 43.8641C158.89 44.1221 158.491 44.3201 158.035 44.4581C157.585 44.5961 157.135 44.6651 156.685 44.6651ZM157.9 43.6751V41.3081H159.232V43.8641L157.9 43.6751ZM163.647 44.6651C163.149 44.6651 162.687 44.5841 162.261 44.4221C161.841 44.2601 161.475 44.0321 161.163 43.7381C160.857 43.4441 160.617 43.0991 160.443 42.7031C160.275 42.3071 160.191 41.8751 160.191 41.4071C160.191 40.9391 160.275 40.5071 160.443 40.1111C160.617 39.7151 160.86 39.3701 161.172 39.0761C161.484 38.7821 161.85 38.5541 162.27 38.3921C162.69 38.2301 163.146 38.1491 163.638 38.1491C164.136 38.1491 164.592 38.2301 165.006 38.3921C165.426 38.5541 165.789 38.7821 166.095 39.0761C166.407 39.3701 166.65 39.7151 166.824 40.1111C166.998 40.5011 167.085 40.9331 167.085 41.4071C167.085 41.8751 166.998 42.3101 166.824 42.7121C166.65 43.1081 166.407 43.4531 166.095 43.7471C165.789 44.0351 165.426 44.2601 165.006 44.4221C164.592 44.5841 164.139 44.6651 163.647 44.6651ZM163.638 43.4231C163.92 43.4231 164.178 43.3751 164.412 43.2791C164.652 43.1831 164.862 43.0451 165.042 42.8651C165.222 42.6851 165.36 42.4721 165.456 42.2261C165.558 41.9801 165.609 41.7071 165.609 41.4071C165.609 41.1071 165.558 40.8341 165.456 40.5881C165.36 40.3421 165.222 40.1291 165.042 39.9491C164.868 39.7691 164.661 39.6311 164.421 39.5351C164.181 39.4391 163.92 39.3911 163.638 39.3911C163.356 39.3911 163.095 39.4391 162.855 39.5351C162.621 39.6311 162.414 39.7691 162.234 39.9491C162.054 40.1291 161.913 40.3421 161.811 40.5881C161.715 40.8341 161.667 41.1071 161.667 41.4071C161.667 41.7011 161.715 41.9741 161.811 42.2261C161.913 42.4721 162.051 42.6851 162.225 42.8651C162.405 43.0451 162.615 43.1831 162.855 43.2791C163.095 43.3751 163.356 43.4231 163.638 43.4231ZM169.522 40.7951H172.555V41.9291H169.522V40.7951ZM169.63 43.3871H173.059V44.5571H168.181V38.2571H172.942V39.4271H169.63V43.3871ZM176.289 44.6651C175.785 44.6651 175.302 44.5991 174.84 44.4671C174.378 44.3291 174.006 44.1521 173.724 43.9361L174.219 42.8381C174.489 43.0301 174.807 43.1891 175.173 43.3151C175.545 43.4351 175.92 43.4951 176.298 43.4951C176.586 43.4951 176.817 43.4681 176.991 43.4141C177.171 43.3541 177.303 43.2731 177.387 43.1711C177.471 43.0691 177.513 42.9521 177.513 42.8201C177.513 42.6521 177.447 42.5201 177.315 42.4241C177.183 42.3221 177.009 42.2411 176.793 42.1811C176.577 42.1151 176.337 42.0551 176.073 42.0011C175.815 41.9411 175.554 41.8691 175.29 41.7851C175.032 41.7011 174.795 41.5931 174.579 41.4611C174.363 41.3291 174.186 41.1551 174.048 40.9391C173.916 40.7231 173.85 40.4471 173.85 40.1111C173.85 39.7511 173.946 39.4241 174.138 39.1301C174.336 38.8301 174.63 38.5931 175.02 38.4191C175.416 38.2391 175.911 38.1491 176.505 38.1491C176.901 38.1491 177.291 38.1971 177.675 38.2931C178.059 38.3831 178.398 38.5211 178.692 38.7071L178.242 39.8141C177.948 39.6461 177.654 39.5231 177.36 39.4451C177.066 39.3611 176.778 39.3191 176.496 39.3191C176.214 39.3191 175.983 39.3521 175.803 39.4181C175.623 39.4841 175.494 39.5711 175.416 39.6791C175.338 39.7811 175.299 39.9011 175.299 40.0391C175.299 40.2011 175.365 40.3331 175.497 40.4351C175.629 40.5311 175.803 40.6091 176.019 40.6691C176.235 40.7291 176.472 40.7891 176.73 40.8491C176.994 40.9091 177.255 40.9781 177.513 41.0561C177.777 41.1341 178.017 41.2391 178.233 41.3711C178.449 41.5031 178.623 41.6771 178.755 41.8931C178.893 42.1091 178.962 42.3821 178.962 42.7121C178.962 43.0661 178.863 43.3901 178.665 43.6841C178.467 43.9781 178.17 44.2151 177.774 44.3951C177.384 44.5751 176.889 44.6651 176.289 44.6651ZM186.827 38.2571H188.285V44.5571H186.827V38.2571ZM183.965 44.5571H182.507V38.2571H183.965V44.5571ZM186.935 41.9741H183.857V40.7411H186.935V41.9741ZM191.116 40.7951H194.149V41.9291H191.116V40.7951ZM191.224 43.3871H194.653V44.5571H189.775V38.2571H194.536V39.4271H191.224V43.3871ZM195.813 44.5571V38.2571H198.54C199.104 38.2571 199.59 38.3501 199.998 38.5361C200.406 38.7161 200.721 38.9771 200.943 39.3191C201.165 39.6611 201.276 40.0691 201.276 40.5431C201.276 41.0111 201.165 41.4161 200.943 41.7581C200.721 42.0941 200.406 42.3521 199.998 42.5321C199.59 42.7121 199.104 42.8021 198.54 42.8021H196.623L197.271 42.1631V44.5571H195.813ZM199.818 44.5571L198.243 42.2711H199.8L201.393 44.5571H199.818ZM197.271 42.3251L196.623 41.6411H198.459C198.909 41.6411 199.245 41.5451 199.467 41.3531C199.689 41.1551 199.8 40.8851 199.8 40.5431C199.8 40.1951 199.689 39.9251 199.467 39.7331C199.245 39.5411 198.909 39.4451 198.459 39.4451H196.623L197.271 38.7521V42.3251ZM203.773 40.7951H206.806V41.9291H203.773V40.7951ZM203.881 43.3871H207.31V44.5571H202.432V38.2571H207.193V39.4271H203.881V43.3871Z" fill="#C7F0FD"/>
</g>
<path d="M53.88 44.8409V0.00439453H31.212H19.2678H6.71322L29.6427 44.4047H18.2216H9.5031V27.2203L0 8.37853V54.0001H23.0167H34.5251H46.5565L24.1501 9.59976H36.0072H44.3769V25.9991L53.88 44.8409Z" fill="#C7F0FD"/>
<path d="M13.339 31.3203V40.3051H23.0164L18.2213 31.3203H13.339Z" fill="#C7F0FD"/>
<path d="M40.1045 21.6374V12.6526H30.3399L35.2222 21.6374H40.1045Z" fill="#C7F0FD"/>
</svg>
