<svg width="41" height="41" viewBox="0 0 41 41" fill="none" xmlns="http://www.w3.org/2000/svg">
<path d="M20.5 0.524536C31.5574 0.524536 40.5 9.26701 40.5 20.0255C40.5 30.784 31.5574 39.5265 20.5 39.5265C9.44264 39.5265 0.500042 30.784 0.5 20.0255C0.5 9.26701 9.44262 0.524536 20.5 0.524536Z" stroke="#3366FF"/>
<path d="M20.9973 14.8942C18.1579 14.8942 15.8664 17.1859 15.8664 20.0254C15.8664 22.865 18.1579 25.1566 20.9973 25.1566C23.8367 25.1566 26.1282 22.865 26.1282 20.0254C26.1282 17.1859 23.8367 14.8942 20.9973 14.8942ZM20.9973 23.3603C19.1611 23.3603 17.6626 21.8618 17.6626 20.0254C17.6626 18.1891 19.1611 16.6905 20.9973 16.6905C22.8335 16.6905 24.332 18.1891 24.332 20.0254C24.332 21.8618 22.8335 23.3603 20.9973 23.3603ZM26.3383 13.4882C25.6754 13.4882 25.14 14.0236 25.14 14.6866C25.14 15.3496 25.6754 15.885 26.3383 15.885C27.0013 15.885 27.5366 15.3521 27.5366 14.6866C27.5368 14.5292 27.5059 14.3732 27.4458 14.2278C27.3856 14.0823 27.2974 13.9501 27.1861 13.8388C27.0748 13.7275 26.9426 13.6392 26.7971 13.579C26.6516 13.5189 26.4957 13.488 26.3383 13.4882ZM30.9989 20.0254C30.9989 18.6444 31.0114 17.276 30.9338 15.8975C30.8563 14.2963 30.4911 12.8753 29.3203 11.7044C28.147 10.5311 26.7286 10.1683 25.1275 10.0908C23.7466 10.0132 22.3782 10.0257 20.9998 10.0257C19.6189 10.0257 18.2505 10.0132 16.8721 10.0908C15.271 10.1683 13.8501 10.5336 12.6793 11.7044C11.5061 12.8778 11.1433 14.2963 11.0658 15.8975C10.9882 17.2785 11.0007 18.6469 11.0007 20.0254C11.0007 21.4039 10.9882 22.7749 11.0658 24.1534C11.1433 25.7546 11.5086 27.1756 12.6793 28.3464C13.8526 29.5198 15.271 29.8825 16.8721 29.9601C18.253 30.0376 19.6214 30.0251 20.9998 30.0251C22.3807 30.0251 23.7491 30.0376 25.1275 29.9601C26.7286 29.8825 28.1495 29.5173 29.3203 28.3464C30.4936 27.1731 30.8563 25.7546 30.9338 24.1534C31.0139 22.7749 30.9989 21.4064 30.9989 20.0254ZM28.7974 25.9247C28.6148 26.38 28.3947 26.7203 28.0419 27.0705C27.6892 27.4233 27.3515 27.6434 26.8962 27.8261C25.5803 28.3489 22.4558 28.2313 20.9973 28.2313C19.5389 28.2313 16.4118 28.3489 15.0959 27.8286C14.6406 27.6459 14.3004 27.4258 13.9502 27.073C13.5975 26.7203 13.3773 26.3825 13.1947 25.9272C12.6743 24.6087 12.7919 21.484 12.7919 20.0254C12.7919 18.5669 12.6743 15.4396 13.1947 14.1237C13.3773 13.6684 13.5975 13.3281 13.9502 12.9779C14.3029 12.6276 14.6406 12.405 15.0959 12.2223C16.4118 11.7019 19.5389 11.8195 20.9973 11.8195C22.4558 11.8195 25.5828 11.7019 26.8987 12.2223C27.354 12.405 27.6942 12.6251 28.0444 12.9779C28.3972 13.3306 28.6173 13.6684 28.7999 14.1237C29.3203 15.4396 29.2027 18.5669 29.2027 20.0254C29.2027 21.484 29.3203 24.6087 28.7974 25.9247Z" fill="#3366FF"/>
</svg>
