<svg width="163" height="44" viewBox="0 0 163 44" fill="none" xmlns="http://www.w3.org/2000/svg">
<g clip-path="url(#clip0_0_991)">
<path d="M38.4118 6.39565C35.0933 2.93683 29.3896 1.23706 21.0104 1.23706C12.6311 1.23706 6.9274 2.91706 3.60888 6.39565C1.14074 8.9453 0.0414768 12.4634 0.290366 16.8512C0.559995 21.4168 1.43111 25.7453 2.9037 29.7378C4.06518 32.9199 5.57925 35.8253 7.3837 38.3552C9.45777 41.2606 11.4489 42.7429 13.3156 42.7429C14.3941 42.7429 15.9289 42.2291 17.0904 39.7782C18.397 37.0309 19.8074 35.4498 20.9896 35.4498C22.1718 35.4498 23.5822 37.0309 24.8889 39.7782C26.0504 42.2291 27.5852 42.7429 28.6637 42.7429C30.5304 42.7429 32.5215 41.2606 34.5956 38.3552C36.4 35.8253 37.9141 32.9199 39.0963 29.718C40.5689 25.7255 41.44 21.3971 41.7096 16.8314C41.9585 12.4634 40.8593 8.9453 38.4118 6.39565ZM21.0104 3.07518C23.5822 3.07518 25.8844 3.2333 27.917 3.5693C31.4222 4.61683 33.8074 6.33635 34.16 8.07565C34.3467 8.98483 33.9318 9.85447 32.9156 10.6648C32.003 11.3961 30.9452 11.7519 29.6385 11.7519C27.1704 11.7519 24.3081 10.5265 21.2593 9.24177C18.9363 8.25353 16.5304 7.24553 14.2281 6.77118C12.9837 6.534 11.7807 6.39565 10.6193 6.39565C8.37925 6.39565 6.38814 6.88977 4.79111 7.81871C4.83259 7.77918 4.89481 7.71988 4.93629 7.66059C7.90222 4.5773 13.1496 3.07518 21.0104 3.07518ZM15.4311 39.0074C14.8296 40.2724 14.1244 40.9246 13.3363 40.9246C12.1748 40.9246 10.557 39.6201 8.91851 37.3274C4.37629 30.7853 2.73777 22.0295 5.16444 17.4046C5.89037 16.0211 7.19703 15.1909 8.66962 15.1909C10.3911 15.1909 13.2326 16.2582 16.9037 21.2982C19.6 24.9745 20.9481 29.0065 22.2341 32.9001C22.3585 33.2756 22.483 33.6709 22.6074 34.0465C22.0681 33.7698 21.5289 33.6314 20.9689 33.6314C18.9985 33.6314 17.1111 35.4498 15.4311 39.0074ZM39.843 16.7524C39.2207 27.2672 35.3422 34.1453 33.0815 37.3274C31.443 39.6201 29.8252 40.9246 28.6637 40.9246C27.8756 40.9246 27.1704 40.2724 26.5689 39.0074C26.5274 38.9086 26.4859 38.8295 26.4444 38.7307C25.4904 36.774 24.7852 34.6196 24.0178 32.3269C22.6696 28.2949 21.28 24.1246 18.4178 20.2309C14.2696 14.5585 10.8267 13.3726 8.66962 13.3726C6.49185 13.3726 4.56296 14.5585 3.52592 16.5745C3.0074 17.5232 2.65481 18.63 2.4474 19.8554C2.32296 18.8672 2.21925 17.8394 2.15703 16.7721C2.11555 14.0644 2.86222 11.9495 4.35555 10.4672C5.8074 9.00459 7.98518 8.23377 10.6193 8.23377C11.6356 8.23377 12.7348 8.35235 13.8548 8.58953C15.9704 9.00459 18.2726 9.99283 20.5126 10.9415C23.603 12.246 26.797 13.59 29.6385 13.59C31.36 13.59 32.8533 13.0959 34.0978 12.0879C35.6326 10.8427 36.2963 9.30106 35.9852 7.71988C35.8815 7.22577 35.6741 6.73165 35.3837 6.23753C36.0059 6.67236 36.5659 7.12694 37.0637 7.64083C39.1585 9.85447 40.0711 12.8389 39.843 16.7524Z" fill="url(#paint0_linear_0_991)" stroke="url(#paint1_linear_0_991)" stroke-width="0.25" stroke-miterlimit="10"/>
</g>
<path d="M59.328 23.264C58.1693 23.264 57.0913 23.0513 56.094 22.626C55.1113 22.2007 54.2533 21.614 53.52 20.866C52.8013 20.1033 52.2367 19.2087 51.826 18.182C51.4153 17.1553 51.21 16.026 51.21 14.794C51.21 13.5767 51.408 12.4547 51.804 11.428C52.2147 10.3867 52.7867 9.492 53.52 8.744C54.2533 7.98133 55.1113 7.39467 56.094 6.984C57.0767 6.55867 58.1547 6.346 59.328 6.346C60.4867 6.346 61.5207 6.544 62.43 6.94C63.354 7.336 64.1313 7.85667 64.762 8.502C65.3927 9.13267 65.8473 9.822 66.126 10.57L63.794 11.67C63.442 10.79 62.8773 10.0787 62.1 9.536C61.3373 8.97867 60.4133 8.7 59.328 8.7C58.2427 8.7 57.282 8.95667 56.446 9.47C55.61 9.98333 54.9573 10.6947 54.488 11.604C54.0333 12.5133 53.806 13.5767 53.806 14.794C53.806 16.0113 54.0333 17.082 54.488 18.006C54.9573 18.9153 55.61 19.6267 56.446 20.14C57.282 20.6387 58.2427 20.888 59.328 20.888C60.4133 20.888 61.3373 20.6167 62.1 20.074C62.8773 19.5313 63.442 18.82 63.794 17.94L66.126 19.04C65.8473 19.7733 65.3927 20.4627 64.762 21.108C64.1313 21.7533 63.354 22.274 62.43 22.67C61.5207 23.066 60.4867 23.264 59.328 23.264ZM74.5207 23.264C73.3767 23.264 72.3281 22.9927 71.3747 22.45C70.4361 21.9073 69.6881 21.1667 69.1307 20.228C68.5734 19.2893 68.2947 18.226 68.2947 17.038C68.2947 15.8353 68.5734 14.772 69.1307 13.848C69.6881 12.9093 70.4361 12.176 71.3747 11.648C72.3134 11.1053 73.3621 10.834 74.5207 10.834C75.6941 10.834 76.7427 11.1053 77.6667 11.648C78.6054 12.176 79.3461 12.9093 79.8887 13.848C80.4461 14.772 80.7247 15.8353 80.7247 17.038C80.7247 18.2407 80.4461 19.3113 79.8887 20.25C79.3314 21.1887 78.5834 21.9293 77.6447 22.472C76.7061 23 75.6647 23.264 74.5207 23.264ZM74.5207 20.954C75.2247 20.954 75.8481 20.7853 76.3907 20.448C76.9334 20.1107 77.3587 19.6487 77.6667 19.062C77.9894 18.4607 78.1507 17.786 78.1507 17.038C78.1507 16.29 77.9894 15.6227 77.6667 15.036C77.3587 14.4493 76.9334 13.9873 76.3907 13.65C75.8481 13.3127 75.2247 13.144 74.5207 13.144C73.8314 13.144 73.2081 13.3127 72.6507 13.65C72.1081 13.9873 71.6754 14.4493 71.3527 15.036C71.0447 15.6227 70.8907 16.29 70.8907 17.038C70.8907 17.786 71.0447 18.4607 71.3527 19.062C71.6754 19.6487 72.1081 20.1107 72.6507 20.448C73.2081 20.7853 73.8314 20.954 74.5207 20.954ZM83.5918 23V11.098H85.9678V13.43L85.6818 13.122C85.9751 12.374 86.4444 11.8093 87.0898 11.428C87.7351 11.032 88.4831 10.834 89.3338 10.834C90.2138 10.834 90.9911 11.0247 91.6658 11.406C92.3404 11.7873 92.8684 12.3153 93.2498 12.99C93.6311 13.6647 93.8218 14.442 93.8218 15.322V23H91.3578V15.982C91.3578 15.3807 91.2478 14.8747 91.0278 14.464C90.8078 14.0387 90.4924 13.716 90.0818 13.496C89.6858 13.2613 89.2311 13.144 88.7178 13.144C88.2044 13.144 87.7424 13.2613 87.3318 13.496C86.9358 13.716 86.6278 14.0387 86.4078 14.464C86.1878 14.8893 86.0778 15.3953 86.0778 15.982V23H83.5918ZM98.2644 23V13.342H96.0644V11.098H98.2644V10.482C98.2644 9.58733 98.4477 8.83933 98.8144 8.238C99.1811 7.622 99.6871 7.15267 100.332 6.83C100.992 6.50733 101.748 6.346 102.598 6.346C102.76 6.346 102.943 6.36067 103.148 6.39C103.354 6.40467 103.522 6.42667 103.654 6.456V8.612C103.537 8.58267 103.405 8.568 103.258 8.568C103.112 8.55333 102.994 8.546 102.906 8.546C102.246 8.546 101.718 8.7 101.322 9.008C100.926 9.30133 100.728 9.79267 100.728 10.482V11.098H106.426V13.342H100.728V23H98.2644ZM105.26 23V11.098H107.724V23H105.26ZM116.29 23.264C115.146 23.264 114.119 22.9927 113.21 22.45C112.315 21.8927 111.604 21.1447 111.076 20.206C110.563 19.2673 110.306 18.2113 110.306 17.038C110.306 15.8647 110.57 14.8087 111.098 13.87C111.626 12.9313 112.337 12.1907 113.232 11.648C114.127 11.1053 115.139 10.834 116.268 10.834C117.221 10.834 118.065 11.0247 118.798 11.406C119.531 11.7873 120.111 12.3153 120.536 12.99L120.162 13.562V6.346H122.626V23H120.272V20.58L120.558 21.042C120.147 21.7607 119.561 22.3107 118.798 22.692C118.035 23.0733 117.199 23.264 116.29 23.264ZM116.532 20.954C117.221 20.954 117.837 20.7853 118.38 20.448C118.937 20.1107 119.37 19.6487 119.678 19.062C120.001 18.4607 120.162 17.786 120.162 17.038C120.162 16.29 120.001 15.6227 119.678 15.036C119.37 14.4493 118.937 13.9873 118.38 13.65C117.837 13.3127 117.221 13.144 116.532 13.144C115.843 13.144 115.219 13.3127 114.662 13.65C114.105 13.9873 113.672 14.4493 113.364 15.036C113.056 15.6227 112.902 16.29 112.902 17.038C112.902 17.786 113.056 18.4607 113.364 19.062C113.672 19.6487 114.097 20.1107 114.64 20.448C115.197 20.7853 115.828 20.954 116.532 20.954ZM131.556 23.264C130.368 23.264 129.312 22.9927 128.388 22.45C127.479 21.8927 126.768 21.1447 126.254 20.206C125.741 19.2527 125.484 18.1893 125.484 17.016C125.484 15.8133 125.741 14.75 126.254 13.826C126.782 12.902 127.486 12.176 128.366 11.648C129.246 11.1053 130.244 10.834 131.358 10.834C132.253 10.834 133.052 10.988 133.756 11.296C134.46 11.604 135.054 12.0293 135.538 12.572C136.022 13.1 136.389 13.7087 136.638 14.398C136.902 15.0873 137.034 15.8207 137.034 16.598C137.034 16.7887 137.027 16.9867 137.012 17.192C136.998 17.3973 136.968 17.588 136.924 17.764H127.442V15.784H135.516L134.328 16.686C134.475 15.9673 134.424 15.3293 134.174 14.772C133.94 14.2 133.573 13.7527 133.074 13.43C132.59 13.0927 132.018 12.924 131.358 12.924C130.698 12.924 130.112 13.0927 129.598 13.43C129.085 13.7527 128.689 14.222 128.41 14.838C128.132 15.4393 128.022 16.1727 128.08 17.038C128.007 17.8447 128.117 18.5487 128.41 19.15C128.718 19.7513 129.144 20.2207 129.686 20.558C130.244 20.8953 130.874 21.064 131.578 21.064C132.297 21.064 132.906 20.9027 133.404 20.58C133.918 20.2573 134.321 19.8393 134.614 19.326L136.638 20.316C136.404 20.8733 136.037 21.3793 135.538 21.834C135.054 22.274 134.468 22.626 133.778 22.89C133.104 23.1393 132.363 23.264 131.556 23.264ZM139.901 23V11.098H142.277V13.43L141.991 13.122C142.284 12.374 142.753 11.8093 143.399 11.428C144.044 11.032 144.792 10.834 145.643 10.834C146.523 10.834 147.3 11.0247 147.975 11.406C148.649 11.7873 149.177 12.3153 149.559 12.99C149.94 13.6647 150.131 14.442 150.131 15.322V23H147.667V15.982C147.667 15.3807 147.557 14.8747 147.337 14.464C147.117 14.0387 146.801 13.716 146.391 13.496C145.995 13.2613 145.54 13.144 145.027 13.144C144.513 13.144 144.051 13.2613 143.641 13.496C143.245 13.716 142.937 14.0387 142.717 14.464C142.497 14.8893 142.387 15.3953 142.387 15.982V23H139.901ZM158.379 23.132C157.133 23.132 156.165 22.78 155.475 22.076C154.786 21.372 154.441 20.382 154.441 19.106V13.342H152.351V11.098H152.681C153.239 11.098 153.671 10.9367 153.979 10.614C154.287 10.2913 154.441 9.85133 154.441 9.294V8.37H156.927V11.098H159.633V13.342H156.927V18.996C156.927 19.4067 156.993 19.7587 157.125 20.052C157.257 20.3307 157.47 20.5507 157.763 20.712C158.057 20.8587 158.438 20.932 158.907 20.932C159.025 20.932 159.157 20.9247 159.303 20.91C159.45 20.8953 159.589 20.8807 159.721 20.866V23C159.516 23.0293 159.289 23.0587 159.039 23.088C158.79 23.1173 158.57 23.132 158.379 23.132Z" fill="#2952CE"/>
<path d="M50.876 40V31.6H53.456C54.432 31.6 55.24 31.772 55.88 32.116C56.52 32.46 56.992 32.948 57.296 33.58C57.608 34.204 57.764 34.948 57.764 35.812C57.764 36.676 57.608 37.42 57.296 38.044C56.992 38.668 56.52 39.152 55.88 39.496C55.248 39.832 54.44 40 53.456 40H50.876ZM52.076 38.992H53.408C54.184 38.992 54.8 38.864 55.256 38.608C55.712 38.352 56.036 37.988 56.228 37.516C56.428 37.036 56.528 36.468 56.528 35.812C56.528 35.148 56.428 34.576 56.228 34.096C56.036 33.616 55.712 33.248 55.256 32.992C54.8 32.736 54.184 32.608 53.408 32.608H52.076V38.992ZM62.364 40.144C61.788 40.144 61.276 40.012 60.828 39.748C60.38 39.484 60.028 39.116 59.772 38.644C59.524 38.172 59.4 37.624 59.4 37C59.4 36.36 59.524 35.804 59.772 35.332C60.028 34.852 60.38 34.48 60.828 34.216C61.276 33.944 61.796 33.808 62.388 33.808C62.98 33.808 63.488 33.94 63.912 34.204C64.336 34.468 64.664 34.82 64.896 35.26C65.128 35.692 65.244 36.172 65.244 36.7C65.244 36.78 65.24 36.868 65.232 36.964C65.232 37.052 65.228 37.152 65.22 37.264H60.276V36.412H64.044C64.02 35.908 63.852 35.516 63.54 35.236C63.228 34.948 62.84 34.804 62.376 34.804C62.048 34.804 61.748 34.88 61.476 35.032C61.204 35.176 60.984 35.392 60.816 35.68C60.656 35.96 60.576 36.316 60.576 36.748V37.084C60.576 37.532 60.656 37.912 60.816 38.224C60.984 38.528 61.204 38.76 61.476 38.92C61.748 39.072 62.044 39.148 62.364 39.148C62.748 39.148 63.064 39.064 63.312 38.896C63.56 38.728 63.744 38.5 63.864 38.212H65.064C64.96 38.58 64.784 38.912 64.536 39.208C64.288 39.496 63.98 39.724 63.612 39.892C63.252 40.06 62.836 40.144 62.364 40.144ZM67.0572 40V33.952H68.1372L68.2092 34.984C68.4012 34.624 68.6732 34.34 69.0252 34.132C69.3772 33.916 69.7812 33.808 70.2372 33.808C70.7172 33.808 71.1292 33.904 71.4732 34.096C71.8172 34.288 72.0852 34.58 72.2772 34.972C72.4692 35.356 72.5652 35.84 72.5652 36.424V40H71.3652V36.544C71.3652 35.984 71.2412 35.56 70.9932 35.272C70.7452 34.984 70.3852 34.84 69.9132 34.84C69.6012 34.84 69.3212 34.916 69.0732 35.068C68.8252 35.212 68.6252 35.428 68.4732 35.716C68.3292 36.004 68.2572 36.356 68.2572 36.772V40H67.0572ZM77.0642 40C76.6882 40 76.3602 39.94 76.0802 39.82C75.8002 39.7 75.5842 39.5 75.4322 39.22C75.2802 38.94 75.2042 38.56 75.2042 38.08V34.972H74.1602V33.952H75.2042L75.3482 32.44H76.4042V33.952H78.1202V34.972H76.4042V38.092C76.4042 38.436 76.4762 38.672 76.6202 38.8C76.7642 38.92 77.0122 38.98 77.3642 38.98H78.0602V40H77.0642ZM81.9275 40.144C81.4315 40.144 81.0195 40.06 80.6915 39.892C80.3635 39.724 80.1195 39.5 79.9595 39.22C79.7995 38.932 79.7195 38.624 79.7195 38.296C79.7195 37.896 79.8235 37.556 80.0315 37.276C80.2395 36.988 80.5355 36.768 80.9195 36.616C81.3035 36.464 81.7635 36.388 82.2995 36.388H83.8715C83.8715 36.036 83.8195 35.744 83.7155 35.512C83.6115 35.28 83.4555 35.108 83.2475 34.996C83.0475 34.876 82.7915 34.816 82.4795 34.816C82.1195 34.816 81.8115 34.904 81.5555 35.08C81.2995 35.248 81.1395 35.5 81.0755 35.836H79.8755C79.9235 35.412 80.0675 35.052 80.3075 34.756C80.5555 34.452 80.8715 34.22 81.2555 34.06C81.6395 33.892 82.0475 33.808 82.4795 33.808C83.0475 33.808 83.5235 33.908 83.9075 34.108C84.2915 34.308 84.5795 34.592 84.7715 34.96C84.9715 35.32 85.0715 35.752 85.0715 36.256V40H84.0275L83.9315 38.98C83.8435 39.14 83.7395 39.292 83.6195 39.436C83.4995 39.58 83.3555 39.704 83.1875 39.808C83.0275 39.912 82.8395 39.992 82.6235 40.048C82.4155 40.112 82.1835 40.144 81.9275 40.144ZM82.1555 39.172C82.4115 39.172 82.6435 39.12 82.8515 39.016C83.0595 38.912 83.2355 38.772 83.3795 38.596C83.5315 38.412 83.6435 38.208 83.7155 37.984C83.7955 37.752 83.8395 37.516 83.8475 37.276V37.24H82.4195C82.0755 37.24 81.7955 37.284 81.5795 37.372C81.3715 37.452 81.2195 37.564 81.1235 37.708C81.0275 37.852 80.9795 38.02 80.9795 38.212C80.9795 38.412 81.0235 38.584 81.1115 38.728C81.2075 38.864 81.3435 38.972 81.5195 39.052C81.6955 39.132 81.9075 39.172 82.1555 39.172ZM87.0832 40V31.36H88.2832V40H87.0832ZM97.7052 40.144C96.8812 40.144 96.1692 39.964 95.5692 39.604C94.9772 39.236 94.5172 38.728 94.1892 38.08C93.8692 37.424 93.7092 36.664 93.7092 35.8C93.7092 34.944 93.8692 34.188 94.1892 33.532C94.5172 32.876 94.9772 32.368 95.5692 32.008C96.1692 31.64 96.8812 31.456 97.7052 31.456C98.6892 31.456 99.4852 31.692 100.093 32.164C100.709 32.636 101.101 33.3 101.269 34.156H99.9492C99.8292 33.66 99.5812 33.264 99.2052 32.968C98.8372 32.672 98.3372 32.524 97.7052 32.524C97.1372 32.524 96.6452 32.656 96.2292 32.92C95.8132 33.184 95.4932 33.56 95.2692 34.048C95.0452 34.536 94.9332 35.12 94.9332 35.8C94.9332 36.48 95.0452 37.068 95.2692 37.564C95.4932 38.052 95.8132 38.428 96.2292 38.692C96.6452 38.948 97.1372 39.076 97.7052 39.076C98.3372 39.076 98.8372 38.936 99.2052 38.656C99.5812 38.368 99.8292 37.98 99.9492 37.492H101.269C101.101 38.324 100.709 38.976 100.093 39.448C99.4852 39.912 98.6892 40.144 97.7052 40.144ZM105.129 40.144C104.633 40.144 104.221 40.06 103.893 39.892C103.565 39.724 103.321 39.5 103.161 39.22C103.001 38.932 102.921 38.624 102.921 38.296C102.921 37.896 103.025 37.556 103.233 37.276C103.441 36.988 103.737 36.768 104.121 36.616C104.505 36.464 104.965 36.388 105.501 36.388H107.073C107.073 36.036 107.021 35.744 106.917 35.512C106.813 35.28 106.657 35.108 106.449 34.996C106.249 34.876 105.993 34.816 105.681 34.816C105.321 34.816 105.013 34.904 104.757 35.08C104.501 35.248 104.341 35.5 104.277 35.836H103.077C103.125 35.412 103.269 35.052 103.509 34.756C103.757 34.452 104.073 34.22 104.457 34.06C104.841 33.892 105.249 33.808 105.681 33.808C106.249 33.808 106.725 33.908 107.109 34.108C107.493 34.308 107.781 34.592 107.973 34.96C108.173 35.32 108.273 35.752 108.273 36.256V40H107.229L107.133 38.98C107.045 39.14 106.941 39.292 106.821 39.436C106.701 39.58 106.557 39.704 106.389 39.808C106.229 39.912 106.041 39.992 105.825 40.048C105.617 40.112 105.385 40.144 105.129 40.144ZM105.357 39.172C105.613 39.172 105.845 39.12 106.053 39.016C106.261 38.912 106.437 38.772 106.581 38.596C106.733 38.412 106.845 38.208 106.917 37.984C106.997 37.752 107.041 37.516 107.049 37.276V37.24H105.621C105.277 37.24 104.997 37.284 104.781 37.372C104.573 37.452 104.421 37.564 104.325 37.708C104.229 37.852 104.181 38.02 104.181 38.212C104.181 38.412 104.225 38.584 104.313 38.728C104.409 38.864 104.545 38.972 104.721 39.052C104.897 39.132 105.109 39.172 105.357 39.172ZM110.284 40V33.952H111.364L111.472 35.092C111.608 34.82 111.784 34.592 112 34.408C112.216 34.216 112.468 34.068 112.756 33.964C113.052 33.86 113.388 33.808 113.764 33.808V35.08H113.332C113.084 35.08 112.848 35.112 112.624 35.176C112.4 35.232 112.2 35.332 112.024 35.476C111.856 35.62 111.724 35.816 111.628 36.064C111.532 36.312 111.484 36.62 111.484 36.988V40H110.284ZM117.895 40.144C117.319 40.144 116.807 40.012 116.359 39.748C115.911 39.484 115.559 39.116 115.303 38.644C115.055 38.172 114.931 37.624 114.931 37C114.931 36.36 115.055 35.804 115.303 35.332C115.559 34.852 115.911 34.48 116.359 34.216C116.807 33.944 117.327 33.808 117.919 33.808C118.511 33.808 119.019 33.94 119.443 34.204C119.867 34.468 120.195 34.82 120.427 35.26C120.659 35.692 120.775 36.172 120.775 36.7C120.775 36.78 120.771 36.868 120.763 36.964C120.763 37.052 120.759 37.152 120.751 37.264H115.807V36.412H119.575C119.551 35.908 119.383 35.516 119.071 35.236C118.759 34.948 118.371 34.804 117.907 34.804C117.579 34.804 117.279 34.88 117.007 35.032C116.735 35.176 116.515 35.392 116.347 35.68C116.187 35.96 116.107 36.316 116.107 36.748V37.084C116.107 37.532 116.187 37.912 116.347 38.224C116.515 38.528 116.735 38.76 117.007 38.92C117.279 39.072 117.575 39.148 117.895 39.148C118.279 39.148 118.595 39.064 118.843 38.896C119.091 38.728 119.275 38.5 119.395 38.212H120.595C120.491 38.58 120.315 38.912 120.067 39.208C119.819 39.496 119.511 39.724 119.143 39.892C118.783 40.06 118.367 40.144 117.895 40.144ZM129.883 40.144C129.059 40.144 128.347 39.964 127.747 39.604C127.155 39.236 126.695 38.728 126.367 38.08C126.047 37.424 125.887 36.664 125.887 35.8C125.887 34.944 126.047 34.188 126.367 33.532C126.695 32.876 127.155 32.368 127.747 32.008C128.347 31.64 129.059 31.456 129.883 31.456C130.867 31.456 131.663 31.692 132.271 32.164C132.887 32.636 133.279 33.3 133.447 34.156H132.127C132.007 33.66 131.759 33.264 131.383 32.968C131.015 32.672 130.515 32.524 129.883 32.524C129.315 32.524 128.823 32.656 128.407 32.92C127.991 33.184 127.671 33.56 127.447 34.048C127.223 34.536 127.111 35.12 127.111 35.8C127.111 36.48 127.223 37.068 127.447 37.564C127.671 38.052 127.991 38.428 128.407 38.692C128.823 38.948 129.315 39.076 129.883 39.076C130.515 39.076 131.015 38.936 131.383 38.656C131.759 38.368 132.007 37.98 132.127 37.492H133.447C133.279 38.324 132.887 38.976 132.271 39.448C131.663 39.912 130.867 40.144 129.883 40.144ZM135.302 40V31.36H136.502V40H135.302ZM138.714 40V33.952H139.914V40H138.714ZM139.326 32.812C139.094 32.812 138.902 32.74 138.75 32.596C138.606 32.452 138.534 32.268 138.534 32.044C138.534 31.828 138.606 31.652 138.75 31.516C138.902 31.372 139.094 31.3 139.326 31.3C139.55 31.3 139.738 31.372 139.89 31.516C140.042 31.652 140.118 31.828 140.118 32.044C140.118 32.268 140.042 32.452 139.89 32.596C139.738 32.74 139.55 32.812 139.326 32.812ZM142.11 40V33.952H143.19L143.262 34.984C143.454 34.624 143.726 34.34 144.078 34.132C144.43 33.916 144.834 33.808 145.29 33.808C145.77 33.808 146.182 33.904 146.526 34.096C146.87 34.288 147.138 34.58 147.33 34.972C147.522 35.356 147.618 35.84 147.618 36.424V40H146.418V36.544C146.418 35.984 146.294 35.56 146.046 35.272C145.798 34.984 145.438 34.84 144.966 34.84C144.654 34.84 144.374 34.916 144.126 35.068C143.878 35.212 143.678 35.428 143.526 35.716C143.382 36.004 143.31 36.356 143.31 36.772V40H142.11ZM149.717 40V33.952H150.917V40H149.717ZM150.329 32.812C150.097 32.812 149.905 32.74 149.753 32.596C149.609 32.452 149.537 32.268 149.537 32.044C149.537 31.828 149.609 31.652 149.753 31.516C149.905 31.372 150.097 31.3 150.329 31.3C150.553 31.3 150.741 31.372 150.893 31.516C151.045 31.652 151.121 31.828 151.121 32.044C151.121 32.268 151.045 32.452 150.893 32.596C150.741 32.74 150.553 32.812 150.329 32.812ZM155.909 40.144C155.325 40.144 154.805 40.012 154.349 39.748C153.893 39.476 153.533 39.104 153.269 38.632C153.013 38.16 152.885 37.612 152.885 36.988C152.885 36.356 153.013 35.804 153.269 35.332C153.533 34.852 153.893 34.48 154.349 34.216C154.805 33.944 155.325 33.808 155.909 33.808C156.645 33.808 157.261 34 157.757 34.384C158.253 34.768 158.569 35.288 158.705 35.944H157.457C157.377 35.592 157.193 35.32 156.905 35.128C156.625 34.936 156.289 34.84 155.897 34.84C155.577 34.84 155.281 34.924 155.009 35.092C154.737 35.252 154.517 35.492 154.349 35.812C154.189 36.124 154.109 36.512 154.109 36.976C154.109 37.32 154.157 37.628 154.253 37.9C154.349 38.164 154.477 38.388 154.637 38.572C154.805 38.756 154.997 38.896 155.213 38.992C155.429 39.08 155.657 39.124 155.897 39.124C156.161 39.124 156.397 39.084 156.605 39.004C156.821 38.916 157.001 38.788 157.145 38.62C157.297 38.452 157.401 38.252 157.457 38.02H158.705C158.569 38.66 158.253 39.176 157.757 39.568C157.261 39.952 156.645 40.144 155.909 40.144Z" fill="#5C85FF"/>
<defs>
<linearGradient id="paint0_linear_0_991" x1="6.36346" y1="21.9999" x2="47.7676" y2="21.9999" gradientUnits="userSpaceOnUse">
<stop stop-color="#001C81"/>
<stop offset="1" stop-color="#3359DF"/>
</linearGradient>
<linearGradient id="paint1_linear_0_991" x1="9.33303" y1="22.7411" x2="45.6263" y2="21.6529" gradientUnits="userSpaceOnUse">
<stop stop-color="#001C81"/>
<stop offset="1" stop-color="#3359DF"/>
</linearGradient>
<clipPath id="clip0_0_991">
<rect width="42" height="42" fill="white" transform="translate(0 1)"/>
</clipPath>
</defs>
</svg>
