<svg width="54" height="54" viewBox="0 0 54 54" fill="none" xmlns="http://www.w3.org/2000/svg">
<g opacity="0.96" filter="url(#filter0_d_1163_239)">
<rect x="12" y="8" width="30" height="30" rx="4" fill="#FF9547"/>
</g>
<path fill-rule="evenodd" clip-rule="evenodd" d="M29 18C29 16.897 28.103 16 27 16C25.897 16 25 16.897 25 18C25 19.103 25.897 20 27 20C28.103 20 29 19.103 29 18ZM31 18C31 20.206 29.206 22 27 22C24.794 22 23 20.206 23 18C23 15.794 24.794 14 27 14C29.206 14 31 15.794 31 18ZM20 31C20 27.14 23.141 24 27 24C30.859 24 34 27.14 34 31C34 31.552 33.553 32 33 32C32.447 32 32 31.552 32 31C32 28.243 29.757 26 27 26C24.243 26 22 28.243 22 31C22 31.552 21.553 32 21 32C20.447 32 20 31.552 20 31Z" fill="white"/>
<mask id="mask0_1163_239" style="mask-type:luminance" maskUnits="userSpaceOnUse" x="20" y="14" width="14" height="18">
<path fill-rule="evenodd" clip-rule="evenodd" d="M29 18C29 16.897 28.103 16 27 16C25.897 16 25 16.897 25 18C25 19.103 25.897 20 27 20C28.103 20 29 19.103 29 18ZM31 18C31 20.206 29.206 22 27 22C24.794 22 23 20.206 23 18C23 15.794 24.794 14 27 14C29.206 14 31 15.794 31 18ZM20 31C20 27.14 23.141 24 27 24C30.859 24 34 27.14 34 31C34 31.552 33.553 32 33 32C32.447 32 32 31.552 32 31C32 28.243 29.757 26 27 26C24.243 26 22 28.243 22 31C22 31.552 21.553 32 21 32C20.447 32 20 31.552 20 31Z" fill="white"/>
</mask>
<g mask="url(#mask0_1163_239)">
<rect x="15" y="11" width="24" height="24" fill="white"/>
</g>
<defs>
<filter id="filter0_d_1163_239" x="0.7" y="0.7" width="52.6" height="52.6" filterUnits="userSpaceOnUse" color-interpolation-filters="sRGB">
<feFlood flood-opacity="0" result="BackgroundImageFix"/>
<feColorMatrix in="SourceAlpha" type="matrix" values="0 0 0 0 0 0 0 0 0 0 0 0 0 0 0 0 0 0 127 0" result="hardAlpha"/>
<feOffset dy="4"/>
<feGaussianBlur stdDeviation="5.65"/>
<feComposite in2="hardAlpha" operator="out"/>
<feColorMatrix type="matrix" values="0 0 0 0 0 0 0 0 0 0 0 0 0 0 0 0 0 0 0.21 0"/>
<feBlend mode="normal" in2="BackgroundImageFix" result="effect1_dropShadow_1163_239"/>
<feBlend mode="normal" in="SourceGraphic" in2="effect1_dropShadow_1163_239" result="shape"/>
</filter>
</defs>
</svg>
