<svg width="15" height="16" viewBox="0 0 15 16" fill="none" xmlns="http://www.w3.org/2000/svg">
<circle cx="7.5" cy="8" r="7.5" fill="#3366FF"/>
<path fill-rule="evenodd" clip-rule="evenodd" d="M6.5129 10.7717C6.3854 10.7717 6.26344 10.719 6.17613 10.6262L3.92964 8.2337C3.75456 8.04799 3.76426 7.75558 3.94996 7.58096C4.13613 7.40634 4.42855 7.41558 4.60271 7.60128L6.50828 9.62973L10.3924 5.37881C10.5652 5.18987 10.8571 5.1774 11.0456 5.34924C11.2336 5.52109 11.2466 5.81351 11.0747 6.00153L6.85382 10.6211C6.76744 10.7163 6.64456 10.7708 6.51613 10.7717H6.5129Z" fill="white"/>
<mask id="mask0_0_868" style="mask-type:luminance" maskUnits="userSpaceOnUse" x="3" y="5" width="9" height="6">
<path fill-rule="evenodd" clip-rule="evenodd" d="M6.5129 10.7717C6.3854 10.7717 6.26344 10.719 6.17613 10.6262L3.92964 8.2337C3.75456 8.04799 3.76426 7.75558 3.94996 7.58096C4.13613 7.40634 4.42855 7.41558 4.60271 7.60128L6.50828 9.62973L10.3924 5.37881C10.5652 5.18987 10.8571 5.1774 11.0456 5.34924C11.2336 5.52109 11.2466 5.81351 11.0747 6.00153L6.85382 10.6211C6.76744 10.7163 6.64456 10.7708 6.51613 10.7717H6.5129Z" fill="white"/>
</mask>
<g mask="url(#mask0_0_868)">
<rect x="1.95648" y="2.45654" width="11.087" height="11.087" fill="white"/>
</g>
</svg>
