<svg width="74" height="75" viewBox="0 0 74 75" fill="none" xmlns="http://www.w3.org/2000/svg">
<g filter="url(#filter0_di_0_663)">
<ellipse cx="37.2988" cy="37.3301" rx="23.8993" ry="24.4447" fill="#85A3FF"/>
<path d="M37.2989 13.1354C50.3546 13.1354 60.9481 23.9622 60.9483 37.3297C60.9483 50.6974 50.3547 61.525 37.2989 61.525C24.243 61.525 13.6494 50.6974 13.6494 37.3297C13.6496 23.9622 24.2431 13.1354 37.2989 13.1354Z" stroke="white" stroke-width="0.5"/>
</g>
<path fill-rule="evenodd" clip-rule="evenodd" d="M31.4985 36.489C31.4985 35.8565 32.045 35.3431 32.7183 35.3431C33.3917 35.3431 33.9382 35.8565 33.9382 36.489C33.9382 37.1215 33.3917 37.6348 32.7183 37.6348C32.045 37.6348 31.4985 37.1215 31.4985 36.489ZM37.5978 35.3431C36.9244 35.3431 36.3779 35.8565 36.3779 36.489C36.3779 37.1215 36.9244 37.6348 37.5978 37.6348C38.2711 37.6348 38.8176 37.1215 38.8176 36.489C38.8176 35.8565 38.2711 35.3431 37.5978 35.3431ZM42.4772 35.3431C41.8038 35.3431 41.2573 35.8565 41.2573 36.489C41.2573 37.1215 41.8038 37.6348 42.4772 37.6348C43.1506 37.6348 43.6971 37.1215 43.6971 36.489C43.6971 35.8565 43.1506 35.3431 42.4772 35.3431ZM47.2327 37.9727C46.6142 41.7013 43.4145 44.794 39.4512 45.4918C37.5373 45.8309 35.5879 45.6373 33.8191 44.9337C33.3178 44.7344 32.7993 44.6335 32.2906 44.6335C32.0589 44.6335 31.8295 44.6542 31.6039 44.6966L28.1736 45.3405L28.8604 42.1127C29.0043 41.4424 28.9165 40.7251 28.6079 40.0387C27.8589 38.3772 27.6539 36.5473 28.0138 34.7483C28.7567 31.0255 32.0479 28.0199 36.0185 27.439C39.178 26.9772 42.2679 27.9122 44.4978 30.0068C46.7289 32.1026 47.7255 35.0061 47.2327 37.9727ZM46.2239 28.3866C43.4365 25.7695 39.5817 24.6019 35.6428 25.1737C30.6694 25.9024 26.5463 29.6654 25.6156 34.3255C25.1666 36.5691 25.4253 38.8539 26.3609 40.9313C26.4792 41.196 26.5158 41.4424 26.4695 41.6635L25.4228 46.5769C25.3423 46.9527 25.468 47.3412 25.7571 47.6116C25.9876 47.8293 26.2987 47.9473 26.6195 47.9473C26.6988 47.9473 26.7781 47.9404 26.8586 47.9255L32.0833 46.9436C32.3833 46.8897 32.6737 46.9688 32.8676 47.0444C35.0817 47.9233 37.5141 48.165 39.9001 47.7445C44.8625 46.8702 48.8685 42.9973 49.6444 38.3257C50.2568 34.628 49.0113 31.0049 46.2239 28.3866Z" fill="white"/>
<mask id="mask0_0_663" style="mask-type:luminance" maskUnits="userSpaceOnUse" x="25" y="25" width="25" height="23">
<path fill-rule="evenodd" clip-rule="evenodd" d="M31.4985 36.489C31.4985 35.8565 32.045 35.3431 32.7183 35.3431C33.3917 35.3431 33.9382 35.8565 33.9382 36.489C33.9382 37.1215 33.3917 37.6348 32.7183 37.6348C32.045 37.6348 31.4985 37.1215 31.4985 36.489ZM37.5978 35.3431C36.9244 35.3431 36.3779 35.8565 36.3779 36.489C36.3779 37.1215 36.9244 37.6348 37.5978 37.6348C38.2711 37.6348 38.8176 37.1215 38.8176 36.489C38.8176 35.8565 38.2711 35.3431 37.5978 35.3431ZM42.4772 35.3431C41.8038 35.3431 41.2573 35.8565 41.2573 36.489C41.2573 37.1215 41.8038 37.6348 42.4772 37.6348C43.1506 37.6348 43.6971 37.1215 43.6971 36.489C43.6971 35.8565 43.1506 35.3431 42.4772 35.3431ZM47.2327 37.9727C46.6142 41.7013 43.4145 44.794 39.4512 45.4918C37.5373 45.8309 35.5879 45.6373 33.8191 44.9337C33.3178 44.7344 32.7993 44.6335 32.2906 44.6335C32.0589 44.6335 31.8295 44.6542 31.6039 44.6966L28.1736 45.3405L28.8604 42.1127C29.0043 41.4424 28.9165 40.7251 28.6079 40.0387C27.8589 38.3772 27.6539 36.5473 28.0138 34.7483C28.7567 31.0255 32.0479 28.0199 36.0185 27.439C39.178 26.9772 42.2679 27.9122 44.4978 30.0068C46.7289 32.1026 47.7255 35.0061 47.2327 37.9727ZM46.2239 28.3866C43.4365 25.7695 39.5817 24.6019 35.6428 25.1737C30.6694 25.9024 26.5463 29.6654 25.6156 34.3255C25.1666 36.5691 25.4253 38.8539 26.3609 40.9313C26.4792 41.196 26.5158 41.4424 26.4695 41.6635L25.4228 46.5769C25.3423 46.9527 25.468 47.3412 25.7571 47.6116C25.9876 47.8293 26.2987 47.9473 26.6195 47.9473C26.6988 47.9473 26.7781 47.9404 26.8586 47.9255L32.0833 46.9436C32.3833 46.8897 32.6737 46.9688 32.8676 47.0444C35.0817 47.9233 37.5141 48.165 39.9001 47.7445C44.8625 46.8702 48.8685 42.9973 49.6444 38.3257C50.2568 34.628 49.0113 31.0049 46.2239 28.3866Z" fill="white"/>
</mask>
<g mask="url(#mask0_0_663)">
<rect x="22.9592" y="23.8855" width="29.2767" height="27.5003" fill="white"/>
</g>
<defs>
<filter id="filter0_di_0_663" x="0.599444" y="0.0853758" width="73.3986" height="74.4894" filterUnits="userSpaceOnUse" color-interpolation-filters="sRGB">
<feFlood flood-opacity="0" result="BackgroundImageFix"/>
<feColorMatrix in="SourceAlpha" type="matrix" values="0 0 0 0 0 0 0 0 0 0 0 0 0 0 0 0 0 0 127 0" result="hardAlpha"/>
<feOffset/>
<feGaussianBlur stdDeviation="6.4"/>
<feComposite in2="hardAlpha" operator="out"/>
<feColorMatrix type="matrix" values="0 0 0 0 0.0522222 0 0 0 0 0.242947 0 0 0 0 0.783333 0 0 0 0.2 0"/>
<feBlend mode="normal" in2="BackgroundImageFix" result="effect1_dropShadow_0_663"/>
<feBlend mode="normal" in="SourceGraphic" in2="effect1_dropShadow_0_663" result="shape"/>
<feColorMatrix in="SourceAlpha" type="matrix" values="0 0 0 0 0 0 0 0 0 0 0 0 0 0 0 0 0 0 127 0" result="hardAlpha"/>
<feOffset/>
<feGaussianBlur stdDeviation="1.55"/>
<feComposite in2="hardAlpha" operator="arithmetic" k2="-1" k3="1"/>
<feColorMatrix type="matrix" values="0 0 0 0 0.262745 0 0 0 0 0.403922 0 0 0 0 0.803922 0 0 0 0.1 0"/>
<feBlend mode="normal" in2="shape" result="effect2_innerShadow_0_663"/>
</filter>
</defs>
</svg>
