<svg width="83" height="84" viewBox="0 0 83 84" fill="none" xmlns="http://www.w3.org/2000/svg">
<g filter="url(#filter0_di_0_662)">
<ellipse cx="41.5007" cy="42.1211" rx="26.6569" ry="27.2652" fill="#F9CD3B"/>
<path d="M41.501 15.1058C56.0797 15.106 67.9073 27.1961 67.9073 42.1215C67.907 57.0466 56.0796 69.1359 41.501 69.1361C26.9223 69.1361 15.094 57.0467 15.0938 42.1215C15.0938 27.196 26.9221 15.1058 41.501 15.1058Z" stroke="white" stroke-width="0.5"/>
</g>
<path fill-rule="evenodd" clip-rule="evenodd" d="M47.2759 43.7388C46.5248 43.7388 45.9152 43.1663 45.9152 42.4608C45.9152 41.7553 46.5248 41.1827 47.2759 41.1827C48.0269 41.1827 48.6365 41.7553 48.6365 42.4608C48.6365 43.1663 48.0269 43.7388 47.2759 43.7388ZM41.8334 43.7388C41.0823 43.7388 40.4728 43.1663 40.4728 42.4608C40.4728 41.7553 41.0823 41.1827 41.8334 41.1827C42.5845 41.1827 43.194 41.7553 43.194 42.4608C43.194 43.1663 42.5845 43.7388 41.8334 43.7388ZM36.3909 43.7388C35.6399 43.7388 35.0303 43.1663 35.0303 42.4608C35.0303 41.7553 35.6399 41.1827 36.3909 41.1827C37.142 41.1827 37.7516 41.7553 37.7516 42.4608C37.7516 43.1663 37.142 43.7388 36.3909 43.7388ZM51.4543 33.4236C48.3467 30.5046 44.0458 29.2022 39.6523 29.84C34.1051 30.6528 29.5062 34.85 28.4681 40.0478C27.9687 42.5503 28.2558 45.0987 29.2994 47.4158C29.4328 47.7098 29.4736 47.9858 29.4205 48.2325L28.2545 53.7128C28.1647 54.132 28.3048 54.5653 28.6259 54.8669C28.8831 55.1084 29.23 55.2414 29.5879 55.2414C29.6763 55.2414 29.7661 55.2337 29.8545 55.2158L35.6821 54.1218C36.0168 54.0617 36.342 54.1499 36.5583 54.2343C39.0264 55.2145 41.7395 55.4829 44.4022 55.0152C49.9359 54.04 54.4041 49.7202 55.2695 44.5095C55.9539 40.3839 54.5633 36.344 51.4543 33.4236Z" fill="white"/>
<mask id="mask0_0_662" style="mask-type:luminance" maskUnits="userSpaceOnUse" x="28" y="29" width="28" height="27">
<path fill-rule="evenodd" clip-rule="evenodd" d="M47.2759 43.7388C46.5248 43.7388 45.9152 43.1663 45.9152 42.4608C45.9152 41.7553 46.5248 41.1827 47.2759 41.1827C48.0269 41.1827 48.6365 41.7553 48.6365 42.4608C48.6365 43.1663 48.0269 43.7388 47.2759 43.7388ZM41.8334 43.7388C41.0823 43.7388 40.4728 43.1663 40.4728 42.4608C40.4728 41.7553 41.0823 41.1827 41.8334 41.1827C42.5845 41.1827 43.194 41.7553 43.194 42.4608C43.194 43.1663 42.5845 43.7388 41.8334 43.7388ZM36.3909 43.7388C35.6399 43.7388 35.0303 43.1663 35.0303 42.4608C35.0303 41.7553 35.6399 41.1827 36.3909 41.1827C37.142 41.1827 37.7516 41.7553 37.7516 42.4608C37.7516 43.1663 37.142 43.7388 36.3909 43.7388ZM51.4543 33.4236C48.3467 30.5046 44.0458 29.2022 39.6523 29.84C34.1051 30.6528 29.5062 34.85 28.4681 40.0478C27.9687 42.5503 28.2558 45.0987 29.2994 47.4158C29.4328 47.7098 29.4736 47.9858 29.4205 48.2325L28.2545 53.7128C28.1647 54.132 28.3048 54.5653 28.6259 54.8669C28.8831 55.1084 29.23 55.2414 29.5879 55.2414C29.6763 55.2414 29.7661 55.2337 29.8545 55.2158L35.6821 54.1218C36.0168 54.0617 36.342 54.1499 36.5583 54.2343C39.0264 55.2145 41.7395 55.4829 44.4022 55.0152C49.9359 54.04 54.4041 49.7202 55.2695 44.5095C55.9539 40.3839 54.5633 36.344 51.4543 33.4236Z" fill="white"/>
</mask>
<g mask="url(#mask0_0_662)">
<rect x="25.5066" y="27.1251" width="32.6547" height="30.6734" fill="white"/>
</g>
<defs>
<filter id="filter0_di_0_662" x="0.343781" y="0.355835" width="82.3139" height="83.5305" filterUnits="userSpaceOnUse" color-interpolation-filters="sRGB">
<feFlood flood-opacity="0" result="BackgroundImageFix"/>
<feColorMatrix in="SourceAlpha" type="matrix" values="0 0 0 0 0 0 0 0 0 0 0 0 0 0 0 0 0 0 127 0" result="hardAlpha"/>
<feOffset/>
<feGaussianBlur stdDeviation="7.25"/>
<feComposite in2="hardAlpha" operator="out"/>
<feColorMatrix type="matrix" values="0 0 0 0 0.75 0 0 0 0 0.590066 0 0 0 0 0.059375 0 0 0 0.1 0"/>
<feBlend mode="normal" in2="BackgroundImageFix" result="effect1_dropShadow_0_662"/>
<feBlend mode="normal" in="SourceGraphic" in2="effect1_dropShadow_0_662" result="shape"/>
<feColorMatrix in="SourceAlpha" type="matrix" values="0 0 0 0 0 0 0 0 0 0 0 0 0 0 0 0 0 0 127 0" result="hardAlpha"/>
<feOffset/>
<feGaussianBlur stdDeviation="1.55"/>
<feComposite in2="hardAlpha" operator="arithmetic" k2="-1" k3="1"/>
<feColorMatrix type="matrix" values="0 0 0 0 0.262745 0 0 0 0 0.403922 0 0 0 0 0.803922 0 0 0 0.1 0"/>
<feBlend mode="normal" in2="shape" result="effect2_innerShadow_0_662"/>
</filter>
</defs>
</svg>
